<svg width="80" height="80" viewBox="0 0 80 80" fill="none" xmlns="http://www.w3.org/2000/svg">
<path d="M42.45 33.8167H38.4833L35.8 40.5833H39.3L38.1333 44.4333C37.9778 44.8222 38.0361 45.2111 38.3083 45.6C38.5806 45.9889 38.95 46.1833 39.4167 46.1833C39.7278 46.1833 40 46.1056 40.2333 45.95C40.4667 45.7944 40.6222 45.6 40.7 45.3667L44.2 37.2H41.4L42.45 33.8167ZM42.5667 38.25L39.65 44.9C39.65 45.0556 39.5917 45.1333 39.475 45.1333C39.3583 45.1333 39.2806 45.0944 39.2417 45.0167C39.2028 44.9389 39.1833 44.8222 39.1833 44.6667L40.8167 39.4167H37.4333L39.3 34.8667H40.9333L39.7667 38.25H42.5667ZM55.75 48.5167H55.2833V47.9333C55.2833 47.4667 55.1083 47.0583 54.7583 46.7083C54.4083 46.3583 54 46.1833 53.5333 46.1833H51.9V45.6C51.9 45.2889 51.7833 44.9778 51.55 44.6667C51.3167 44.3556 51.0444 44.1611 50.7333 44.0833V34.5167C50.7333 33.1944 50.3833 32.0083 49.6833 30.9583C48.9833 29.9083 48.0889 29.1111 47 28.5667C47.2333 28.2556 47.35 27.9444 47.35 27.6333V24.25C47.35 23.7833 47.175 23.375 46.825 23.025C46.475 22.675 46.0667 22.5 45.6 22.5H34.4C33.9333 22.5 33.525 22.675 33.175 23.025C32.825 23.375 32.65 23.7833 32.65 24.25V27.6333C32.65 27.9444 32.7667 28.2556 33 28.5667C31.9111 29.1111 31.0167 29.9083 30.3167 30.9583C29.6167 32.0083 29.2667 33.1944 29.2667 34.5167V44.0833C28.9556 44.1611 28.6833 44.3556 28.45 44.6667C28.2167 44.9778 28.1 45.2889 28.1 45.6V46.1833H26.4667C26 46.1833 25.5917 46.3583 25.2417 46.7083C24.8917 47.0583 24.7167 47.4667 24.7167 47.9333V48.5167H24.25C23.7833 48.5167 23.375 48.6722 23.025 48.9833C22.675 49.2944 22.5 49.6833 22.5 50.15V51.3167C22.5 51.7833 22.675 52.1722 23.025 52.4833C23.375 52.7944 23.7833 52.95 24.25 52.95H24.7167V53.5333C24.7167 54 24.8917 54.4083 25.2417 54.7583C25.5917 55.1083 26 55.2833 26.4667 55.2833H28.1V55.75C28.1 56.2167 28.275 56.625 28.625 56.975C28.975 57.325 29.3833 57.5 29.85 57.5H32.0667C32.5333 57.5 32.9417 57.325 33.2917 56.975C33.6417 56.625 33.8167 56.2167 33.8167 55.75V52.95H46.1833V55.75C46.1833 56.2167 46.3583 56.625 46.7083 56.975C47.0583 57.325 47.4667 57.5 47.9333 57.5H50.15C50.6167 57.5 51.025 57.325 51.375 56.975C51.725 56.625 51.9 56.2167 51.9 55.75V55.2833H53.5333C54 55.2833 54.4083 55.1083 54.7583 54.7583C55.1083 54.4083 55.2833 54 55.2833 53.5333V52.95H55.75C56.2167 52.95 56.625 52.7944 56.975 52.4833C57.325 52.1722 57.5 51.7833 57.5 51.3167V50.15C57.5 49.6833 57.325 49.2944 56.975 48.9833C56.625 48.6722 56.2167 48.5167 55.75 48.5167ZM34.4 28.1C34.2444 28.1 34.1083 28.0611 33.9917 27.9833C33.875 27.9056 33.8167 27.7889 33.8167 27.6333V25.8833H34.8667V28.1H34.4ZM36.0333 25.8833H37.2V28.1H36.0333V25.8833ZM38.25 25.8833H39.4167V28.1H38.25V25.8833ZM40.5833 25.8833H41.75V28.1H40.5833V25.8833ZM42.8 25.8833H43.9667V28.1H42.8V25.8833ZM45.1333 25.8833H46.1833V27.6333C46.1833 27.7889 46.125 27.9056 46.0083 27.9833C45.8917 28.0611 45.7556 28.1 45.6 28.1H45.1333V25.8833ZM34.4 23.6667H45.6C45.7556 23.6667 45.8917 23.725 46.0083 23.8417C46.125 23.9583 46.1833 24.0944 46.1833 24.25V24.7167H33.8167V24.25C33.8167 24.0944 33.875 23.9583 33.9917 23.8417C34.1083 23.725 34.2444 23.6667 34.4 23.6667ZM34.4 29.2667H45.6C46.7667 29.5778 47.7194 30.2194 48.4583 31.1917C49.1972 32.1639 49.5667 33.2722 49.5667 34.5167V43.9667H48.5167V34.5167C48.5167 33.5833 48.2444 32.7472 47.7 32.0083C47.1556 31.2694 46.4167 30.7444 45.4833 30.4333H34.5167C33.5833 30.7444 32.8444 31.2694 32.3 32.0083C31.7556 32.7472 31.4833 33.5833 31.4833 34.5167V43.9667H30.4333V34.5167C30.4333 33.2722 30.8028 32.1639 31.5417 31.1917C32.2806 30.2194 33.2333 29.5778 34.4 29.2667ZM46.1833 45.6V48.5167H33.8167V45.6C33.8167 45.2889 33.7 44.9778 33.4667 44.6667C33.2333 44.3556 32.9611 44.1611 32.65 44.0833V34.5167C32.65 33.8167 32.8444 33.1944 33.2333 32.65C33.6222 32.1056 34.1278 31.7167 34.75 31.4833H45.25C45.8722 31.7167 46.3778 32.1056 46.7667 32.65C47.1556 33.1944 47.35 33.8167 47.35 34.5167V44.0833C47.0389 44.1611 46.7667 44.3556 46.5333 44.6667C46.3 44.9778 46.1833 45.2889 46.1833 45.6ZM24.25 51.9C24.0944 51.9 23.9583 51.8417 23.8417 51.725C23.725 51.6083 23.6667 51.4722 23.6667 51.3167V50.15C23.6667 49.9944 23.725 49.8583 23.8417 49.7417C23.9583 49.625 24.0944 49.5667 24.25 49.5667H24.7167V51.9H24.25ZM26.4667 54.1167C26.3111 54.1167 26.175 54.0583 26.0583 53.9417C25.9417 53.825 25.8833 53.6889 25.8833 53.5333V47.9333C25.8833 47.7778 25.9417 47.6417 26.0583 47.525C26.175 47.4083 26.3111 47.35 26.4667 47.35H28.1V54.1167H26.4667ZM32.65 55.75C32.65 55.9056 32.5917 56.0417 32.475 56.1583C32.3583 56.275 32.2222 56.3333 32.0667 56.3333H29.85C29.6944 56.3333 29.5583 56.275 29.4417 56.1583C29.325 56.0417 29.2667 55.9056 29.2667 55.75V45.6C29.2667 45.4444 29.325 45.3278 29.4417 45.25C29.5583 45.1722 29.6944 45.1333 29.85 45.1333H32.0667C32.2222 45.1333 32.3583 45.1722 32.475 45.25C32.5917 45.3278 32.65 45.4444 32.65 45.6V55.75ZM33.8167 51.9V49.5667H46.1833V51.9H33.8167ZM50.7333 55.75C50.7333 55.9056 50.675 56.0417 50.5583 56.1583C50.4417 56.275 50.3056 56.3333 50.15 56.3333H47.9333C47.7778 56.3333 47.6417 56.275 47.525 56.1583C47.4083 56.0417 47.35 55.9056 47.35 55.75V45.6C47.35 45.4444 47.4083 45.3278 47.525 45.25C47.6417 45.1722 47.7778 45.1333 47.9333 45.1333H50.15C50.3056 45.1333 50.4417 45.1722 50.5583 45.25C50.675 45.3278 50.7333 45.4444 50.7333 45.6V55.75ZM54.1167 53.5333C54.1167 53.6889 54.0583 53.825 53.9417 53.9417C53.825 54.0583 53.6889 54.1167 53.5333 54.1167H51.9V47.35H53.5333C53.6889 47.35 53.825 47.4083 53.9417 47.525C54.0583 47.6417 54.1167 47.7778 54.1167 47.9333V53.5333ZM56.3333 51.3167C56.3333 51.4722 56.275 51.6083 56.1583 51.725C56.0417 51.8417 55.9056 51.9 55.75 51.9H55.2833V49.5667H55.75C55.9056 49.5667 56.0417 49.625 56.1583 49.7417C56.275 49.8583 56.3333 49.9944 56.3333 50.15V51.3167Z" fill="#5FB8F9"/>
<rect x="1" y="1" width="78" height="78" rx="39" stroke="#5FB8F9" stroke-width="2" stroke-dasharray="6 4"/>
</svg>
