<svg width="100" height="100" viewBox="0 0 100 100" fill="none" xmlns="http://www.w3.org/2000/svg">
<g clip-path="url(#clip0_1_376)">
<path d="M79.033 61.9464C76.9858 59.8147 74.5164 58.675 71.8993 58.675C69.3033 58.675 66.8128 59.7936 64.6811 61.9253L58.0117 68.5736C57.463 68.2781 56.9143 68.0037 56.3866 67.7294C55.6268 67.3495 54.9092 66.9907 54.2972 66.6108C48.0499 62.6429 42.3724 57.472 36.9272 50.7815C34.289 47.4468 32.5161 44.6397 31.2286 41.7905C32.9593 40.2076 34.5633 38.5613 36.1252 36.9784C36.7161 36.3874 37.3071 35.7754 37.898 35.1844C42.3302 30.7522 42.3302 25.0115 37.898 20.5793L32.1362 14.8174C31.4819 14.1631 30.8065 13.4878 30.1733 12.8124C28.907 11.5038 27.5774 10.1531 26.2055 8.88672C24.1582 6.86057 21.71 5.78418 19.1351 5.78418C16.5602 5.78418 14.0697 6.86057 11.9591 8.88672L11.9169 8.92893L4.741 16.1682C2.03947 18.8697 0.498756 22.1622 0.161066 25.9823C-0.345471 32.1452 1.46962 37.8859 2.86259 41.6427C6.28171 50.8659 11.3893 59.4137 19.0084 68.5736C28.2527 79.6119 39.3754 88.3285 52.0811 94.4703C56.9354 96.7708 63.4148 99.4934 70.6541 99.9577C71.0973 99.9789 71.5616 100 71.9837 100C76.8591 100 80.9536 98.2482 84.1617 94.7658C84.1828 94.7235 84.225 94.7024 84.2461 94.6602C85.3436 93.3306 86.61 92.1275 87.9396 90.8401C88.8472 89.9748 89.7758 89.0672 90.6834 88.1175C92.7728 85.9436 93.8703 83.4109 93.8703 80.8149C93.8703 78.1978 92.7517 75.6862 90.62 73.5756L79.033 61.9464ZM86.5889 84.1707C86.5677 84.1707 86.5677 84.1918 86.5889 84.1707C85.7657 85.0571 84.9215 85.8592 84.014 86.7456C82.6421 88.0541 81.2491 89.426 79.9406 90.9667C77.8089 93.2461 75.2973 94.3225 72.0048 94.3225C71.6882 94.3225 71.3505 94.3225 71.034 94.3014C64.7656 93.9004 58.9404 91.4522 54.5715 89.3627C42.6257 83.5797 32.1362 75.3696 23.4195 64.9645C16.2225 56.2901 11.4104 48.2699 8.22344 39.6588C6.26061 34.4035 5.54302 30.309 5.8596 26.4466C6.07066 23.9773 7.02041 21.93 8.77219 20.1783L15.9692 12.9812C17.0034 12.0104 18.1009 11.4827 19.1773 11.4827C20.5069 11.4827 21.5833 12.2847 22.2587 12.9601L22.322 13.0234C23.6095 14.2265 24.8336 15.4717 26.1211 16.8014C26.7753 17.4767 27.4507 18.1521 28.1261 18.8486L33.888 24.6105C36.1252 26.8477 36.1252 28.916 33.888 31.1532C33.2759 31.7653 32.6849 32.3773 32.0729 32.9683C30.3 34.7834 28.6115 36.4719 26.7753 38.1181C26.7331 38.1603 26.6909 38.1814 26.6698 38.2236C24.8547 40.0387 25.1924 41.8116 25.5723 43.0146L25.6356 43.2046C27.1341 46.8347 29.2447 50.2539 32.4528 54.3273L32.4739 54.3484C38.299 61.5243 44.4408 67.1173 51.2157 71.4018C52.0811 71.9505 52.9675 72.3937 53.8117 72.8158C54.5715 73.1957 55.2891 73.5545 55.9012 73.9344C55.9856 73.9767 56.07 74.04 56.1544 74.0822C56.872 74.441 57.5474 74.6098 58.2439 74.6098C59.9957 74.6098 61.0932 73.5123 61.452 73.1535L68.6701 65.9354C69.3877 65.2178 70.5274 64.3525 71.8571 64.3525C73.1656 64.3525 74.242 65.1756 74.8963 65.8932L74.9385 65.9354L86.5677 77.5646C88.7416 79.7174 88.7416 81.9335 86.5889 84.1707ZM54.0439 23.7873C59.5736 24.716 64.5967 27.3331 68.6068 31.3432C72.6169 35.3532 75.2129 40.3764 76.1626 45.9061C76.3948 47.2991 77.5978 48.2699 78.9697 48.2699C79.1385 48.2699 79.2863 48.2488 79.4551 48.2277C81.0169 47.9744 82.0511 46.4971 81.7979 44.9352C80.6581 38.2447 77.4923 32.1452 72.6591 27.312C67.8259 22.4788 61.7264 19.3129 55.0359 18.1732C53.474 17.92 52.0177 18.9541 51.7434 20.4948C51.469 22.0356 52.4821 23.5341 54.0439 23.7873ZM99.8854 44.1121C98.007 33.0949 92.815 23.0697 84.8371 15.0918C76.8591 7.11384 66.8339 1.92184 55.8168 0.0434386C54.276 -0.230935 52.8198 0.824349 52.5454 2.36506C52.2921 3.92688 53.3263 5.38318 54.8881 5.65755C64.7234 7.3249 73.6933 11.9893 80.827 19.1019C87.9607 26.2356 92.604 35.2055 94.2713 45.0408C94.5035 46.4337 95.7065 47.4046 97.0784 47.4046C97.2472 47.4046 97.395 47.3835 97.5638 47.3624C99.1045 47.1302 100.16 45.6528 99.8854 44.1121Z" fill="#5FB8F9"/>
</g>
<defs>
<clipPath id="clip0_1_376">
<rect width="100" height="100" fill="white"/>
</clipPath>
</defs>
</svg>
