<svg xmlns="http://www.w3.org/2000/svg" width="217" height="28" viewBox="0 0 217 28" fill="none"><g clip-path="url(#clip0_1_304)"><path d="M88.3997 13.3168C89.3982 13.6697 90.2895 14.1775 91.0398 14.9136C92.1775 16.0292 92.7679 17.4071 92.924 18.9756C93.0707 20.4442 92.9146 21.8806 92.3035 23.2415C91.5193 24.9894 90.1748 26.137 88.4261 26.8392C87.0891 27.3753 85.6882 27.581 84.2609 27.5886C81.1056 27.6055 77.9503 27.5942 74.7949 27.5923C74.3944 27.5923 74.3906 27.5904 74.3906 27.1959V2.48029C74.3906 2.09146 74.3944 2.08957 74.7987 2.08957C77.9973 2.08957 81.1959 2.08579 84.3944 2.08957C85.7822 2.09146 87.0985 2.40857 88.2963 3.12395C90.2237 4.27347 91.2561 5.98548 91.2899 8.23734C91.32 10.2589 90.4343 11.8388 88.7833 12.9883C88.6649 13.0695 88.5483 13.1488 88.4298 13.2299C88.4204 13.2356 88.4204 13.2545 88.3997 13.313V13.3168ZM80.7107 19.2569C80.7107 20.078 80.7107 20.8972 80.7107 21.7183C80.7107 22.1316 80.722 22.0882 81.0924 22.0863C81.9537 22.0863 82.813 22.0863 83.6724 22.0863C84.1049 22.0863 84.5317 22.0335 84.9435 21.9032C85.769 21.6428 86.3162 21.0935 86.5663 20.2592C86.728 19.7118 86.7431 19.1455 86.6509 18.5906C86.4855 17.5921 85.9063 16.9333 84.9322 16.637C84.6013 16.5369 84.2647 16.469 83.9187 16.4671C82.9446 16.4614 81.9687 16.4671 80.9947 16.4558C80.7615 16.452 80.7051 16.535 80.7069 16.7521C80.7164 17.5864 80.7107 18.4226 80.7107 19.2569ZM80.7107 9.59449C80.7107 10.1268 80.7107 10.6591 80.7107 11.1895C80.7107 11.5953 80.7126 11.5972 81.1 11.5991C81.5005 11.5991 81.9029 11.601 82.3034 11.5991C82.7322 11.5972 83.1628 11.6198 83.5896 11.5462C84.15 11.4481 84.6239 11.2084 84.9266 10.7044C85.707 9.40385 84.9792 7.85228 83.4881 7.63898C82.6325 7.51629 81.7731 7.60501 80.9157 7.57858C80.7295 7.57292 80.7126 7.68428 80.7126 7.82774C80.7126 8.41854 80.7126 9.00746 80.7126 9.59638L80.7107 9.59449Z" fill="white"></path><path d="M150.719 27.9849C147.406 27.9603 144.429 26.9713 141.896 24.7893C139.623 22.8319 138.252 20.3422 137.72 17.39C137.229 14.6606 137.451 11.9897 138.545 9.4321C140.003 6.02129 142.508 3.66751 145.986 2.44815C150.18 0.979627 154.249 1.34959 158.04 3.71469C161.189 5.67964 163.064 8.57704 163.732 12.2389C164.266 15.1684 163.969 18.0186 162.662 20.7046C160.868 24.3872 157.901 26.6353 153.961 27.6168C152.901 27.8811 151.817 28.0038 150.719 27.9849ZM143.357 14.9249C143.386 15.3005 143.395 15.8498 143.493 16.3896C143.871 18.4508 144.845 20.1383 146.592 21.3256C148.023 22.2958 149.619 22.6809 151.332 22.5299C153.972 22.2977 155.964 21.0292 157.201 18.6604C158.143 16.854 158.288 14.9249 157.901 12.9467C157.602 11.4235 156.919 10.0927 155.781 9.02816C154.066 7.42752 152.019 6.81784 149.717 7.12362C147.225 7.45583 145.381 8.76013 144.219 11.0044C143.611 12.1766 143.378 13.445 143.359 14.9249H143.357Z" fill="white"></path><path d="M66.3304 18.5133C68.1995 21.5126 70.0724 24.5195 71.9885 27.5943H71.4921C69.5854 27.5943 67.6767 27.5868 65.7681 27.6019C65.4409 27.6037 65.2585 27.5131 65.0874 27.2243C63.647 24.7856 62.184 22.3601 60.738 19.9252C60.5913 19.676 60.4371 19.5571 60.1325 19.5722C59.5308 19.6005 58.9272 19.5873 58.3254 19.5779C58.1412 19.576 58.0603 19.6345 58.0772 19.8232C58.0866 19.9233 58.0772 20.0252 58.0772 20.1252V27.0828C58.0772 27.1828 58.0735 27.2847 58.0772 27.3848C58.0829 27.5282 58.0227 27.6 57.876 27.5943C57.8046 27.5924 57.7331 27.5943 57.6598 27.5943H52.1953C52.137 27.5943 52.0806 27.5905 52.0223 27.5943C51.8455 27.6113 51.7477 27.549 51.7609 27.3546C51.7665 27.2696 51.7609 27.1809 51.7609 27.096V2.59362C51.7609 2.5219 51.7684 2.44828 51.7609 2.37656C51.7308 2.1425 51.8361 2.08398 52.058 2.08398C55.3863 2.09531 58.7128 2.0821 62.0411 2.11607C63.3292 2.12929 64.5703 2.45206 65.7362 3.007C68.2465 4.19993 69.7527 6.19319 70.3037 8.90939C70.6309 10.5251 70.6008 12.1465 70.1457 13.7415C69.591 15.6838 68.4477 17.1769 66.7253 18.2226C66.5936 18.3019 66.4319 18.3434 66.3266 18.5095L66.3304 18.5133ZM58.081 11.0197C58.081 11.9559 58.081 12.8921 58.081 13.8284C58.081 14.187 58.0847 14.1927 58.4251 14.1927C59.1415 14.1945 59.858 14.204 60.5763 14.1908C61.1649 14.1794 61.7516 14.1455 62.3176 13.9567C63.2578 13.6453 63.8294 13.0016 64.0363 12.0333C64.1716 11.3915 64.1735 10.7479 64.0494 10.1042C63.8463 9.06039 63.2371 8.38464 62.2217 8.07886C61.9057 7.9826 61.5823 7.90709 61.2514 7.90332C60.2754 7.89199 59.3014 7.89577 58.3273 7.87878C58.0923 7.87501 58.081 7.99015 58.081 8.16946C58.0847 9.1189 58.0829 10.0702 58.081 11.0216V11.0197Z" fill="white"></path><path d="M185.584 18.2783H180.319C179.964 18.2783 179.958 18.2745 179.958 17.931C179.956 16.5757 179.956 15.2223 179.958 13.8689C179.958 13.5462 179.966 13.5405 180.297 13.5405C183.811 13.5405 187.328 13.5405 190.842 13.5405C191.019 13.5405 191.164 13.5216 191.197 13.7859C191.464 15.8528 191.421 17.9026 190.816 19.9053C189.712 23.5672 187.337 26.0342 183.743 27.2914C179.593 28.7429 174.409 27.9728 170.838 24.9885C168.471 23.0104 167.038 20.481 166.494 17.4496C166.032 14.8769 166.184 12.3325 167.13 9.88431C168.642 5.96952 171.481 3.44586 175.447 2.23782C178.576 1.28461 181.705 1.36577 184.753 2.63987C186.97 3.56666 188.666 5.11446 189.93 7.15491C190.035 7.32479 190.069 7.4286 189.866 7.56639C188.574 8.44977 187.294 9.34824 186.017 10.2373C185.878 10.1958 185.836 10.0787 185.771 9.99001C184.381 8.12511 182.499 7.20209 180.212 7.0643C179.084 6.99635 177.974 7.12659 176.91 7.51543C174.849 8.26479 173.384 9.66158 172.658 11.7436C171.822 14.1445 171.91 16.5417 173.038 18.8351C174.074 20.9397 175.819 22.1591 178.097 22.6027C179.469 22.8707 180.842 22.8254 182.17 22.3441C184.022 21.6721 185.095 20.298 185.594 18.4255C185.601 18.3991 185.59 18.3689 185.582 18.2839L185.584 18.2783Z" fill="white"></path><path d="M24.1877 27.5492C24.1369 27.3944 24.2385 27.2717 24.2855 27.1434C27.3694 18.9344 30.4551 10.7254 33.5428 2.51643C33.6499 2.2333 33.8474 2.08984 34.1389 2.08984H40.0791C40.3461 2.08984 40.5273 2.21568 40.6225 2.46735C43.7139 10.6895 46.8053 18.9117 49.893 27.1339C49.9419 27.2623 50.034 27.3869 49.9983 27.5454C49.8779 27.6247 49.7463 27.5888 49.6241 27.5888C47.6308 27.5907 45.6357 27.5888 43.6425 27.5888C43.2551 27.5888 43.2532 27.5888 43.131 27.2283C42.7925 26.2506 42.4484 25.2728 42.125 24.2913C42.046 24.0534 41.9501 23.9496 41.6774 23.9515C38.6368 23.9628 35.5962 23.961 32.5537 23.9515C32.296 23.9515 32.1795 24.0308 32.0986 24.2781C31.7695 25.2747 31.4122 26.2619 31.0813 27.2566C31.0023 27.4907 30.9064 27.5964 30.6338 27.5945C28.5822 27.5813 26.5307 27.5869 24.4792 27.5851C24.3833 27.5851 24.2798 27.6153 24.1896 27.5398L24.1877 27.5492ZM37.0949 9.92886C36.7263 10.7065 34.31 17.8509 34.3043 18.1378H39.9512C38.996 15.3914 38.0539 12.6847 37.0949 9.92886Z" fill="white"></path><path d="M23.8269 22.0495C23.2383 23.0877 22.5125 24.0258 21.64 24.8469C20.0586 26.3343 18.1857 27.2611 16.0702 27.6688C12.9186 28.2785 9.86107 27.9519 6.98028 26.4985C3.2138 24.5959 0.974227 21.5116 0.238985 17.3495C-0.248043 14.5937 -0.00923005 11.8869 1.12654 9.3142C2.71173 5.7203 5.4609 3.41748 9.18224 2.31326C12.2248 1.41101 15.2748 1.46386 18.2515 2.64736C20.6171 3.58736 22.3978 5.22953 23.7066 7.404C23.7968 7.55312 23.8589 7.65693 23.6652 7.78906C22.2173 8.77436 20.7769 9.7691 19.344 10.7544C19.25 10.7261 19.2124 10.6638 19.171 10.6053C17.7457 8.63657 15.7919 7.73621 13.4 7.73055C12.1439 7.72866 10.9498 8.00802 9.85731 8.64223C7.77757 9.85027 6.74898 11.7246 6.53838 14.0803C6.43684 15.2223 6.52333 16.3586 6.91634 17.4477C7.8133 19.9355 9.61098 21.3511 12.1702 21.823C13.2533 22.0231 14.344 21.9835 15.4158 21.7154C16.907 21.3398 18.0879 20.4923 19.0074 19.2654C19.0507 19.2069 19.0902 19.1465 19.1334 19.0899C19.2481 18.937 19.391 18.9162 19.5621 19.0313C19.6806 19.1106 19.7972 19.1937 19.9157 19.2767C21.106 20.1054 22.2981 20.9321 23.4866 21.7626C23.6032 21.8438 23.7385 21.9023 23.8269 22.0514V22.0495Z" fill="white"></path><path d="M119.149 14.0157C119.149 16.1486 119.146 18.2816 119.155 20.4126C119.155 20.6977 119.093 20.8694 118.822 21.0261C115.103 23.1666 111.393 25.3203 107.684 27.4815C107.457 27.6155 107.297 27.6174 107.068 27.4834C103.361 25.3222 99.6475 23.1704 95.9299 21.0261C95.6723 20.877 95.5802 20.7146 95.5821 20.4183C95.5915 16.1392 95.5915 11.8601 95.5821 7.58103C95.5821 7.2677 95.6742 7.09593 95.9469 6.93926C98.3858 5.53869 100.815 4.12303 103.252 2.7168C103.497 2.57523 103.672 2.40724 103.799 2.14487C104.55 0.604624 106.169 -0.127747 107.713 0.015707C109.224 0.153499 110.362 0.889645 111.022 2.2921C111.112 2.48274 111.255 2.57146 111.415 2.66584C113.835 4.07018 116.257 5.47452 118.677 6.87886C118.764 6.92982 118.848 6.98645 118.939 7.02609C119.108 7.0997 119.155 7.22239 119.153 7.40171C119.144 8.05103 119.149 8.69846 119.149 9.34778V14.0157ZM114.736 14.0082C114.736 12.6982 114.728 11.3882 114.742 10.0764C114.744 9.81401 114.665 9.66678 114.433 9.53465C113.076 8.76264 111.722 7.97742 110.375 7.18087C110.146 7.04496 109.997 7.04685 109.774 7.20729C108.318 8.24167 106.393 8.23412 104.945 7.19219C104.753 7.0544 104.623 7.03175 104.414 7.15444C103.044 7.96232 101.667 8.76264 100.283 9.55164C100.082 9.66678 100.009 9.78758 100.009 10.0216C100.018 12.6567 100.018 15.2917 100.009 17.9267C100.009 18.1778 100.093 18.308 100.304 18.4288C102.566 19.7312 104.824 21.0412 107.077 22.3587C107.288 22.4814 107.446 22.4871 107.66 22.3625C109.915 21.045 112.171 19.735 114.435 18.4345C114.665 18.3023 114.745 18.1551 114.742 17.8927C114.728 16.596 114.736 15.3011 114.736 14.0044H114.734L114.736 14.0082ZM109.586 4.006C109.589 2.46764 108.403 1.42382 106.957 1.69374C105.994 1.87306 105.293 2.62808 105.183 3.60206C105.052 4.77612 105.531 5.74066 106.472 6.13516C107.978 6.76561 109.608 5.76143 109.587 4.006H109.586Z" fill="white"></path><path d="M192.805 1.65639C192.947 1.58466 193.077 1.61486 193.201 1.61297C195.065 1.61297 196.93 1.61863 198.796 1.60353C199.096 1.60165 199.247 1.70357 199.388 1.96406C201.107 5.10495 202.84 8.2364 204.568 11.3716C204.664 11.5472 204.766 11.7171 204.896 11.9417C204.995 11.7756 205.076 11.651 205.148 11.5226C206.898 8.35155 208.651 5.18045 210.392 2.0037C210.548 1.72056 210.708 1.59787 211.052 1.60165C212.902 1.6243 214.753 1.61297 216.603 1.61297H217.002C216.996 1.80739 216.885 1.92819 216.808 2.05655C213.863 7.02837 210.917 12.0021 207.963 16.9701C207.808 17.2287 207.743 17.4817 207.743 17.7818C207.75 20.749 207.746 23.7162 207.746 26.6835C207.746 26.7835 207.737 26.8855 207.746 26.9855C207.771 27.2177 207.664 27.2724 207.447 27.2724C205.755 27.2649 204.063 27.2705 202.368 27.2667C202.054 27.2667 202.051 27.2592 202.051 26.876C202.051 24.5996 202.051 22.3251 202.051 20.0487C202.051 19.2994 202.041 18.55 202.054 17.8025C202.06 17.4892 201.987 17.2212 201.827 16.9512C198.888 12.0077 195.956 7.06046 193.025 2.11317C192.94 1.97161 192.823 1.83948 192.801 1.66016L192.805 1.65639Z" fill="white"></path><path d="M121.845 14.825V2.37653C121.848 1.97259 121.848 1.9707 122.239 1.9707C123.774 1.9707 125.31 1.9707 126.845 1.9707C127.311 1.9707 127.544 2.20665 127.544 2.67665V21.9977C127.544 22.3941 127.516 22.3733 127.916 22.3733H136.611C137.029 22.3752 137.031 22.3752 137.033 22.7942V27.2035C137.033 27.6528 137.08 27.6282 136.621 27.6282H122.373C122.273 27.6282 122.172 27.6226 122.072 27.6282C121.907 27.6396 121.835 27.5697 121.845 27.4036C121.85 27.2885 121.845 27.1733 121.845 27.0582V14.825Z" fill="white"></path></g><defs><clipPath id="clip0_1_304"><rect width="217" height="28" fill="white"></rect></clipPath></defs></svg>