<svg width="80" height="80" viewBox="0 0 80 80" fill="none" xmlns="http://www.w3.org/2000/svg">
<path d="M50.3841 37.3167C50.2286 37.2389 50.073 37.1222 49.9174 36.9667L51.0841 25.8833C51.1619 24.95 50.8897 24.1528 50.2674 23.4917C49.6452 22.8306 48.8674 22.5 47.9341 22.5H32.0674C31.1341 22.5 30.3563 22.8306 29.7341 23.4917C29.1119 24.1528 28.8397 24.95 28.9174 25.8833L30.0841 36.9667L29.6174 37.3167C28.2174 38.7167 27.148 40.3111 26.4091 42.1C25.6702 43.8889 25.3008 45.7556 25.3008 47.7C25.3008 49.4111 25.5924 51.0833 26.1758 52.7167C26.7591 54.35 27.5952 55.8278 28.6841 57.15L29.0341 57.5H50.9674L51.3174 57.15C52.4063 55.8278 53.2424 54.35 53.8258 52.7167C54.4091 51.0833 54.7008 49.4111 54.7008 47.7C54.7008 45.7556 54.3313 43.8889 53.5924 42.1C52.8536 40.3111 51.7841 38.7167 50.3841 37.3167ZM31.2508 24.8333C31.4841 24.6778 31.7563 24.6 32.0674 24.6H47.9341C48.2452 24.6 48.5174 24.6972 48.7508 24.8917C48.9841 25.0861 49.0619 25.3389 48.9841 25.65L48.0508 35.45C47.4286 35.0611 46.7674 34.7111 46.0674 34.4L46.8841 26.5833H33.1174L33.9341 34.4C33.2341 34.7111 32.573 35.0611 31.9508 35.45L31.0174 25.65C30.9397 25.3389 31.0174 25.0667 31.2508 24.8333ZM44.5508 28.6833L44.0841 33.5833C42.7619 33.1944 41.4008 33 40.0008 33C38.6008 33 37.2397 33.1944 35.9174 33.5833L35.4508 28.6833H44.5508ZM50.0341 55.4H29.9674C28.2563 53.1444 27.4008 50.5778 27.4008 47.7C27.4008 45.4444 27.9647 43.3444 29.0924 41.4C30.2202 39.4556 31.7563 37.9194 33.7008 36.7917C35.6452 35.6639 37.7452 35.1 40.0008 35.1C42.2563 35.1 44.3563 35.6639 46.3008 36.7917C48.2452 37.9194 49.7813 39.4556 50.9091 41.4C52.0369 43.3444 52.6008 45.4444 52.6008 47.7C52.6008 50.5778 51.7452 53.1444 50.0341 55.4ZM40.0008 42.6833C38.8341 42.6833 37.8619 43.0917 37.0841 43.9083C36.3063 44.725 35.9174 45.6972 35.9174 46.825C35.9174 47.9528 36.3063 48.925 37.0841 49.7417C37.8619 50.5583 38.8341 50.9667 40.0008 50.9667C41.1674 50.9667 42.1397 50.5583 42.9174 49.7417C43.6952 48.925 44.0841 47.9528 44.0841 46.825C44.0841 45.6972 43.6952 44.725 42.9174 43.9083C42.1397 43.0917 41.1674 42.6833 40.0008 42.6833ZM40.0008 48.8667C39.4563 48.8667 38.9702 48.6722 38.5424 48.2833C38.1147 47.8944 37.9008 47.4083 37.9008 46.825C37.9008 46.2417 38.1147 45.7556 38.5424 45.3667C38.9702 44.9778 39.4563 44.7833 40.0008 44.7833C40.5452 44.7833 41.0313 44.9778 41.4591 45.3667C41.8869 45.7556 42.1008 46.2417 42.1008 46.825C42.1008 47.4083 41.8869 47.8944 41.4591 48.2833C41.0313 48.6722 40.5452 48.8667 40.0008 48.8667Z" fill="#5FB8F9"/>
<rect x="1" y="1" width="78" height="78" rx="39" stroke="#5FB8F9" stroke-width="2" stroke-dasharray="6 4"/>
</svg>
