<svg width="80" height="80" viewBox="0 0 80 80" fill="none" xmlns="http://www.w3.org/2000/svg">
<path d="M40 39.9995C39.3778 39.9995 38.8528 40.2134 38.425 40.6411C37.9972 41.0689 37.7833 41.5745 37.7833 42.1578C37.7833 42.7411 37.9972 43.2467 38.425 43.6745C38.8528 44.1023 39.3778 44.3161 40 44.3161C40.6222 44.3161 41.1472 44.1023 41.575 43.6745C42.0028 43.2467 42.2167 42.7411 42.2167 42.1578C42.2167 41.5745 42.0028 41.0689 41.575 40.6411C41.1472 40.2134 40.6222 39.9995 40 39.9995ZM40 42.9161C39.7667 42.9161 39.5722 42.8384 39.4167 42.6828C39.2611 42.5273 39.1833 42.3328 39.1833 42.0995C39.1833 41.8661 39.2611 41.6717 39.4167 41.5161C39.5722 41.3606 39.7667 41.2828 40 41.2828C40.2333 41.2828 40.4278 41.3606 40.5833 41.5161C40.7389 41.6717 40.8167 41.8661 40.8167 42.0995C40.8167 42.3328 40.7389 42.5273 40.5833 42.6828C40.4278 42.8384 40.2333 42.9161 40 42.9161ZM36.85 44.6661C36.2278 44.6661 35.7028 44.88 35.275 45.3078C34.8472 45.7356 34.6333 46.2606 34.6333 46.8828C34.6333 47.505 34.8472 48.03 35.275 48.4578C35.7028 48.8856 36.2278 49.0995 36.85 49.0995C37.4722 49.0995 37.9972 48.8856 38.425 48.4578C38.8528 48.03 39.0667 47.505 39.0667 46.8828C39.0667 46.2606 38.8528 45.7356 38.425 45.3078C37.9972 44.88 37.4722 44.6661 36.85 44.6661ZM36.85 47.6995C36.6167 47.6995 36.4222 47.6217 36.2667 47.4661C36.1111 47.3106 36.0333 47.1161 36.0333 46.8828C36.0333 46.6495 36.1111 46.455 36.2667 46.2995C36.4222 46.1439 36.6167 46.0661 36.85 46.0661C37.0833 46.0661 37.2778 46.1439 37.4333 46.2995C37.5889 46.455 37.6667 46.6495 37.6667 46.8828C37.6667 47.1161 37.5889 47.3106 37.4333 47.4661C37.2778 47.6217 37.0833 47.6995 36.85 47.6995ZM43.15 44.6661C42.5278 44.6661 42.0028 44.88 41.575 45.3078C41.1472 45.7356 40.9333 46.2606 40.9333 46.8828C40.9333 47.505 41.1472 48.03 41.575 48.4578C42.0028 48.8856 42.5278 49.0995 43.15 49.0995C43.7722 49.0995 44.2972 48.8856 44.725 48.4578C45.1528 48.03 45.3667 47.505 45.3667 46.8828C45.3667 46.2606 45.1528 45.7356 44.725 45.3078C44.2972 44.88 43.7722 44.6661 43.15 44.6661ZM43.15 47.6995C42.9167 47.6995 42.7222 47.6217 42.5667 47.4661C42.4111 47.3106 42.3333 47.1161 42.3333 46.8828C42.3333 46.6495 42.4111 46.455 42.5667 46.2995C42.7222 46.1439 42.9167 46.0661 43.15 46.0661C43.3833 46.0661 43.5778 46.1439 43.7333 46.2995C43.8889 46.455 43.9667 46.6495 43.9667 46.8828C43.9667 47.1161 43.8889 47.3106 43.7333 47.4661C43.5778 47.6217 43.3833 47.6995 43.15 47.6995ZM33.7 49.4495C33.1556 49.4495 32.6694 49.6634 32.2417 50.0911C31.8139 50.5189 31.6 51.0439 31.6 51.6661C31.6 52.2884 31.8139 52.8134 32.2417 53.2411C32.6694 53.6689 33.175 53.8828 33.7583 53.8828C34.3417 53.8828 34.8472 53.6689 35.275 53.2411C35.7028 52.8134 35.9167 52.2884 35.9167 51.6661C35.9167 51.0439 35.7028 50.5189 35.275 50.0911C34.8472 49.6634 34.3222 49.4495 33.7 49.4495ZM33.7 52.4828C33.4667 52.4828 33.2722 52.405 33.1167 52.2495C32.9611 52.0939 32.8833 51.8995 32.8833 51.6661C32.8833 51.4328 32.9611 51.2384 33.1167 51.0828C33.2722 50.9273 33.4667 50.8495 33.7 50.8495C33.9333 50.8495 34.1278 50.9273 34.2833 51.0828C34.4389 51.2384 34.5167 51.4328 34.5167 51.6661C34.5167 51.8995 34.4389 52.0939 34.2833 52.2495C34.1278 52.405 33.9333 52.4828 33.7 52.4828ZM40 49.4495C39.3778 49.4495 38.8528 49.6634 38.425 50.0911C37.9972 50.5189 37.7833 51.0439 37.7833 51.6661C37.7833 52.2884 37.9972 52.8134 38.425 53.2411C38.8528 53.6689 39.3778 53.8828 40 53.8828C40.6222 53.8828 41.1472 53.6689 41.575 53.2411C42.0028 52.8134 42.2167 52.2884 42.2167 51.6661C42.2167 51.0439 42.0028 50.5189 41.575 50.0911C41.1472 49.6634 40.6222 49.4495 40 49.4495ZM40 52.4828C39.7667 52.4828 39.5722 52.405 39.4167 52.2495C39.2611 52.0939 39.1833 51.8995 39.1833 51.6661C39.1833 51.4328 39.2611 51.2384 39.4167 51.0828C39.5722 50.9273 39.7667 50.8495 40 50.8495C40.2333 50.8495 40.4278 50.9273 40.5833 51.0828C40.7389 51.2384 40.8167 51.4328 40.8167 51.6661C40.8167 51.8995 40.7389 52.0939 40.5833 52.2495C40.4278 52.405 40.2333 52.4828 40 52.4828ZM46.3 49.4495C45.6778 49.4495 45.1528 49.6634 44.725 50.0911C44.2972 50.5189 44.0833 51.0439 44.0833 51.6661C44.0833 52.2884 44.2972 52.8134 44.725 53.2411C45.1528 53.6689 45.6583 53.8828 46.2417 53.8828C46.825 53.8828 47.3306 53.6689 47.7583 53.2411C48.1861 52.8134 48.4 52.2884 48.4 51.6661C48.4 51.0439 48.1861 50.5189 47.7583 50.0911C47.3306 49.6634 46.8444 49.4495 46.3 49.4495ZM46.3 52.4828C46.0667 52.4828 45.8722 52.405 45.7167 52.2495C45.5611 52.0939 45.4833 51.8995 45.4833 51.6661C45.4833 51.4328 45.5611 51.2384 45.7167 51.0828C45.8722 50.9273 46.0667 50.8495 46.3 50.8495C46.5333 50.8495 46.7278 50.9273 46.8833 51.0828C47.0389 51.2384 47.1167 51.4328 47.1167 51.6661C47.1167 51.8995 47.0389 52.0939 46.8833 52.2495C46.7278 52.405 46.5333 52.4828 46.3 52.4828ZM55.4 28.2161C54.5444 27.2828 53.5139 26.6606 52.3083 26.3495C51.1028 26.0384 49.8972 26.0384 48.6917 26.3495C47.4861 26.6606 46.4556 27.2828 45.6 28.2161L40 33.6995L34.4 28.2161C33.5444 27.2828 32.5139 26.6606 31.3083 26.3495C30.1028 26.0384 28.8972 26.0384 27.6917 26.3495C26.4861 26.6606 25.4361 27.2634 24.5417 28.1578C23.6472 29.0523 23.0444 30.1023 22.7333 31.3078C22.4222 32.5134 22.4222 33.7189 22.7333 34.9245C23.0444 36.13 23.6667 37.1995 24.6 38.1328L30.55 44.0828C30.7056 44.2384 30.8611 44.3161 31.0167 44.3161C31.1722 44.3161 31.3278 44.2384 31.4833 44.0828L40 35.6828L48.5167 44.0828C48.6722 44.2384 48.8278 44.3161 48.9833 44.3161C49.1389 44.3161 49.2944 44.2384 49.45 44.0828L55.4 38.1328C56.3333 37.1995 56.9556 36.13 57.2667 34.9245C57.5778 33.7189 57.5778 32.5134 57.2667 31.3078C56.9556 30.1023 56.3333 29.0717 55.4 28.2161ZM31.0167 42.6828L29.9667 41.5161L34.6333 36.7328C34.7889 36.655 34.8667 36.5189 34.8667 36.3245C34.8667 36.13 34.8083 35.955 34.6917 35.7995C34.575 35.6439 34.4194 35.5661 34.225 35.5661C34.0306 35.5661 33.8556 35.6439 33.7 35.7995L28.9167 40.5828L25.5333 37.0828C24.4444 35.9939 23.9 34.6717 23.9 33.1161C23.9 31.5606 24.4444 30.2384 25.5333 29.1495C26.6222 28.0606 27.9444 27.5161 29.5 27.5161C31.0556 27.5161 32.3778 28.0606 33.4667 29.1495L39.0667 34.6328L31.0167 42.6828ZM54.4667 37.0828L48.9833 42.6828L40.9333 34.6328L42.1 33.5828L46.8833 38.3661C47.0389 38.4439 47.1944 38.4828 47.35 38.4828C47.5056 38.4828 47.6611 38.4245 47.8167 38.3078C47.9722 38.1911 48.05 38.0356 48.05 37.8411C48.05 37.6467 47.9722 37.4717 47.8167 37.3161L43.0333 32.6495L46.5333 29.1495C47.6222 28.0606 48.9444 27.5161 50.5 27.5161C52.0556 27.5161 53.3778 28.0606 54.4667 29.1495C55.5556 30.2384 56.1 31.5606 56.1 33.1161C56.1 34.6717 55.5556 35.9939 54.4667 37.0828ZM49.5667 39.1828C49.5667 39.105 49.5278 39.0661 49.45 39.0661L49.3333 38.9495H48.9833L48.75 39.0661L48.5167 39.2995L48.4 39.7661L48.6333 40.1161L48.9833 40.2328H49.3333L49.6833 39.9995L49.8 39.6495C49.8 39.4161 49.7222 39.2606 49.5667 39.1828ZM36.6167 34.3995C36.6167 34.3217 36.6167 34.2828 36.6167 34.2828L36.5 34.1661L36.2667 33.9328L35.8 33.8161L35.45 34.0495L35.3333 34.3995V34.7495L35.5667 35.0995L35.9167 35.2161C36.15 35.2161 36.3444 35.1384 36.5 34.9828L36.6167 34.7495V34.3995ZM32.5333 35.0995L31.0167 31.2495L30.9 31.0161C30.8222 30.9384 30.6472 30.9384 30.375 31.0161C30.1028 31.0939 29.8889 31.2106 29.7333 31.3661C29.5778 31.5217 29.5389 31.6773 29.6167 31.8328L30.6667 34.2828L28.2167 33.2328C28.0611 33.155 27.8861 33.1939 27.6917 33.3495C27.4972 33.505 27.3611 33.7189 27.2833 33.9911C27.2056 34.2634 27.2444 34.4773 27.4 34.6328L31.4833 36.1495C31.7167 36.2273 31.9694 36.13 32.2417 35.8578C32.5139 35.5856 32.6111 35.3328 32.5333 35.0995Z" fill="#5FB8F9"/>
<rect x="1" y="1" width="78" height="78" rx="39" stroke="#5FB8F9" stroke-width="2" stroke-dasharray="6 4"/>
</svg>
