<svg width="100" height="100" viewBox="0 0 100 100" fill="none" xmlns="http://www.w3.org/2000/svg">
<g clip-path="url(#clip0_1_391)">
<path d="M99.9041 98.0148L85.2557 59.427C85.134 59.1066 84.9039 58.839 84.6053 58.6708L69.0026 49.8806L73.5578 42.6579C76.3535 38.2216 77.8315 33.0949 77.8315 27.832C77.8315 12.4853 65.3461 0 49.9995 0C34.6528 0 22.1675 12.4853 22.1675 27.832C22.1675 33.0962 23.646 38.2232 26.4433 42.6583L30.9974 49.881L15.3941 58.6708C15.0954 58.839 14.8652 59.1066 14.7435 59.427L0.0950767 98.0148C-0.0115605 98.2963 -0.0289632 98.6037 0.0452338 98.8953C0.119431 99.187 0.281629 99.4487 0.509782 99.6449C0.737936 99.8411 1.02098 99.9624 1.32044 99.9921C1.6199 100.022 1.92126 99.9587 2.18355 99.8111L25.7319 86.5444L49.2803 99.8111C49.4998 99.9347 49.7475 99.9997 49.9994 99.9997C50.2513 99.9997 50.4989 99.9347 50.7184 99.8111L74.2668 86.5444L97.8152 99.8111C98.0774 99.9591 98.3789 100.023 98.6785 99.9929C98.9782 99.9633 99.2614 99.8421 99.4896 99.6457C99.7179 99.4494 99.8802 99.1875 99.9543 98.8957C100.028 98.6039 100.011 98.2963 99.9041 98.0148ZM51.4645 75.92C52.3961 75.5907 53.189 74.9564 53.7147 74.1198C53.7891 74.0026 66.2594 54.2304 66.2594 54.2304L72.6108 84.1147L51.4645 96.0279V75.92ZM28.9214 41.0952C26.4196 37.1284 25.0974 32.5421 25.0974 27.8318C25.0974 14.1006 36.2684 2.92949 49.9997 2.92949C63.7309 2.92949 74.902 14.1006 74.902 27.8318C74.902 32.5411 73.5801 37.1279 71.0799 41.0952C70.8844 41.4052 51.5833 72.0129 51.2465 72.5417C51.2434 72.5461 51.2407 72.5508 51.2378 72.5553C50.9661 72.985 50.5034 73.2418 49.9997 73.2418C49.4956 73.2418 49.0307 72.9838 48.7587 72.5561C48.563 72.2458 29.2233 41.5775 28.928 41.106L28.9214 41.0952ZM17.2941 60.9628L30.9495 53.27L28.5706 64.4622C28.5251 64.6758 28.528 64.8968 28.5789 65.1092C28.6299 65.3215 28.7277 65.5198 28.8652 65.6895C29.0027 65.8591 29.1764 65.9959 29.3736 66.0898C29.5707 66.1837 29.7864 66.2323 30.0048 66.2321C30.3401 66.2316 30.6652 66.1161 30.9256 65.9049C31.1861 65.6937 31.3663 65.3996 31.436 65.0715L33.7401 54.2313L46.2833 74.1237C46.811 74.9579 47.6038 75.5905 48.5344 75.9198V96.0283L27.3886 84.1149L30.2181 70.8026C30.2581 70.6144 30.2606 70.4202 30.2256 70.2311C30.1906 70.0419 30.1186 69.8615 30.0139 69.7002C29.9091 69.5389 29.7736 69.3997 29.6151 69.2908C29.4565 69.1818 29.2781 69.1051 29.0899 69.0651C28.9018 69.0249 28.7075 69.0223 28.5183 69.0573C28.3291 69.0923 28.1487 69.1642 27.9873 69.269C27.826 69.3737 27.6868 69.5093 27.5779 69.6679C27.4689 69.8265 27.3923 70.005 27.3524 70.1932L24.4366 83.9112L4.26948 95.2732L17.2941 60.9628ZM75.5625 83.9114L69.0502 53.2698L82.7051 60.9628L95.7299 95.2732L75.5625 83.9114Z" fill="#5FB8F9"/>
<path d="M66.1133 27.832C66.1133 18.9473 58.8848 11.7188 50 11.7188C41.1152 11.7188 33.8867 18.9473 33.8867 27.832C33.8867 36.7168 41.1152 43.9453 50 43.9453C58.8848 43.9453 66.1133 36.7168 66.1133 27.832ZM36.8164 27.832C36.8164 20.5625 42.7305 14.6484 50 14.6484C57.2695 14.6484 63.1836 20.5625 63.1836 27.832C63.1836 35.1016 57.2695 41.0156 50 41.0156C42.7305 41.0156 36.8164 35.1016 36.8164 27.832Z" fill="#5FB8F9"/>
<path d="M60.2539 27.832C60.2539 22.1781 55.6539 17.5781 50 17.5781C44.3461 17.5781 39.7461 22.1781 39.7461 27.832C39.7461 33.4859 44.3461 38.0859 50 38.0859C55.6539 38.0859 60.2539 33.4859 60.2539 27.832ZM42.6758 27.832C42.6758 23.7934 45.9613 20.5078 50 20.5078C54.0387 20.5078 57.3242 23.7934 57.3242 27.832C57.3242 31.8707 54.0387 35.1562 50 35.1562C45.9613 35.1562 42.6758 31.8707 42.6758 27.832Z" fill="#5FB8F9"/>
</g>
<defs>
<clipPath id="clip0_1_391">
<rect width="100" height="100" fill="white"/>
</clipPath>
</defs>
</svg>
