<svg xmlns="http://www.w3.org/2000/svg" width="188" height="24" viewBox="0 0 188 24" fill="none"><g clip-path="url(#clip0_1_21)"><path d="M76.5861 11.4148C77.4512 11.7173 78.2234 12.1525 78.8734 12.7835C79.859 13.7397 80.3706 14.9208 80.5058 16.2653C80.6329 17.524 80.4976 18.7552 79.9682 19.9217C79.2888 21.4199 78.124 22.4036 76.6089 23.0054C75.4506 23.4649 74.237 23.6413 73.0005 23.6478C70.2668 23.6623 67.5331 23.6526 64.7995 23.651C64.4525 23.651 64.4492 23.6494 64.4492 23.3112V2.12638C64.4492 1.7931 64.4525 1.79148 64.8027 1.79148C67.5739 1.79148 70.345 1.78824 73.1161 1.79148C74.3184 1.7931 75.4588 2.0649 76.4965 2.67809C78.1664 3.66339 79.0608 5.13083 79.0901 7.06099C79.1162 8.79377 78.3488 10.148 76.9185 11.1333C76.8158 11.2028 76.7148 11.2708 76.6122 11.3404C76.6041 11.3452 76.6041 11.3614 76.5861 11.4115V11.4148ZM69.9247 16.5063C69.9247 17.2101 69.9247 17.9123 69.9247 18.6161C69.9247 18.9704 69.9345 18.9332 70.2554 18.9316C71.0015 18.9316 71.746 18.9316 72.4905 18.9316C72.8652 18.9316 73.235 18.8863 73.5918 18.7746C74.307 18.5514 74.7811 18.0805 74.9977 17.3654C75.1379 16.8962 75.1509 16.4109 75.0711 15.9352C74.9277 15.0793 74.4259 14.5147 73.582 14.2607C73.2953 14.1749 73.0037 14.1167 72.704 14.1151C71.8601 14.1102 71.0146 14.1151 70.1707 14.1054C69.9687 14.1021 69.9198 14.1733 69.9214 14.3594C69.9296 15.0745 69.9247 15.7912 69.9247 16.5063ZM69.9247 8.22427C69.9247 8.68052 69.9247 9.13677 69.9247 9.5914C69.9247 9.93925 69.9263 9.94086 70.2619 9.94248C70.6089 9.94248 70.9575 9.9441 71.3045 9.94248C71.676 9.94086 72.049 9.96028 72.4189 9.89718C72.9043 9.81305 73.3149 9.60758 73.5772 9.17559C74.2532 8.06086 73.6228 6.73094 72.3309 6.54812C71.5896 6.44295 70.8451 6.519 70.1023 6.49635C69.941 6.49149 69.9263 6.58695 69.9263 6.70991C69.9263 7.21631 69.9263 7.7211 69.9263 8.22588L69.9247 8.22427Z" fill="#5FB8F9"></path><path d="M130.578 23.9869C127.707 23.9659 125.129 23.1181 122.934 21.2478C120.964 19.57 119.777 17.436 119.316 14.9056C118.891 12.5661 119.083 10.2768 120.031 8.08452C121.294 5.16096 123.464 3.14344 126.477 2.09827C130.11 0.83954 133.636 1.15665 136.92 3.18388C139.649 4.86812 141.273 7.35161 141.851 10.4903C142.314 13.0013 142.057 15.4444 140.924 17.7466C139.37 20.9032 136.799 22.8301 133.387 23.6714C132.468 23.8979 131.529 24.0031 130.578 23.9869ZM124.2 12.7926C124.224 13.1146 124.232 13.5854 124.317 14.0481C124.645 15.8149 125.489 17.2613 127.002 18.2789C128.242 19.1105 129.625 19.4406 131.109 19.3112C133.396 19.1122 135.122 18.0249 136.193 15.9945C137.01 14.4461 137.135 12.7926 136.799 11.0971C136.54 9.79141 135.949 8.65079 134.963 7.73829C133.478 6.3663 131.704 5.84372 129.71 6.10582C127.551 6.39057 125.953 7.50854 124.946 9.43223C124.42 10.437 124.218 11.5242 124.202 12.7926H124.2Z" fill="#5FB8F9"></path><path d="M57.4666 15.8684C59.0859 18.4392 60.7085 21.0166 62.3686 23.6521H61.9385C60.2866 23.6521 58.6331 23.6456 56.9795 23.6586C56.696 23.6602 56.538 23.5825 56.3898 23.335C55.1419 21.2447 53.8744 19.1657 52.6216 17.0786C52.4945 16.865 52.361 16.7631 52.097 16.776C51.5757 16.8003 51.0528 16.789 50.5315 16.7809C50.3718 16.7793 50.3017 16.8294 50.3164 16.9912C50.3246 17.077 50.3164 17.1643 50.3164 17.2501V23.2137C50.3164 23.2994 50.3132 23.3868 50.3164 23.4725C50.3213 23.5955 50.2692 23.657 50.1421 23.6521C50.0802 23.6505 50.0183 23.6521 49.9548 23.6521H45.2205C45.17 23.6521 45.1212 23.6489 45.0707 23.6521C44.9175 23.6667 44.8328 23.6133 44.8442 23.4466C44.8491 23.3738 44.8442 23.2978 44.8442 23.225V2.22297C44.8442 2.16149 44.8507 2.09839 44.8442 2.03691C44.8181 1.83629 44.9094 1.78613 45.1016 1.78613C47.9851 1.79584 50.8671 1.78451 53.7506 1.81364C54.8665 1.82496 55.9418 2.10162 56.9518 2.57729C59.1267 3.5998 60.4316 5.30831 60.9089 7.63648C61.1924 9.0214 61.1663 10.4112 60.7721 11.7783C60.2915 13.4431 59.301 14.7229 57.8087 15.6192C57.6947 15.6872 57.5546 15.7228 57.4633 15.8651L57.4666 15.8684ZM50.3197 9.44529C50.3197 10.2478 50.3197 11.0503 50.3197 11.8527C50.3197 12.1601 50.3229 12.165 50.6178 12.165C51.2385 12.1666 51.8592 12.1747 52.4815 12.1634C52.9914 12.1537 53.4997 12.1245 53.9901 11.9628C54.8046 11.6958 55.2999 11.1441 55.4791 10.3141C55.5964 9.76402 55.598 9.21232 55.4905 8.66061C55.3145 7.76591 54.7867 7.1867 53.907 6.9246C53.6333 6.84208 53.3531 6.77737 53.0664 6.77413C52.2208 6.76443 51.377 6.76766 50.5331 6.7531C50.3294 6.74986 50.3197 6.84856 50.3197 7.00226C50.3229 7.81606 50.3213 8.63149 50.3197 9.44691V9.44529Z" fill="#5FB8F9"></path><path d="M160.783 15.6663H156.221C155.913 15.6663 155.908 15.663 155.908 15.3686C155.907 14.2069 155.907 13.0469 155.908 11.8868C155.908 11.6102 155.915 11.6053 156.202 11.6053C159.246 11.6053 162.293 11.6053 165.338 11.6053C165.491 11.6053 165.616 11.5891 165.646 11.8156C165.877 13.5872 165.839 15.3443 165.315 17.0609C164.359 20.1996 162.301 22.3142 159.188 23.3918C155.592 24.6359 151.101 23.9758 148.007 21.4179C145.956 19.7223 144.715 17.5543 144.244 14.956C143.843 12.7508 143.975 10.5699 144.795 8.47143C146.104 5.11589 148.564 2.95276 152 1.9173C154.711 1.10025 157.422 1.16982 160.063 2.26191C161.983 3.0563 163.453 4.38298 164.548 6.13194C164.639 6.27755 164.668 6.36654 164.492 6.48464C163.373 7.24182 162.264 8.01194 161.157 8.77398C161.037 8.73838 161.001 8.63807 160.944 8.56203C159.74 6.96354 158.109 6.17239 156.128 6.05428C155.151 5.99603 154.19 6.10767 153.268 6.44096C151.482 7.08327 150.213 8.28052 149.584 10.0651C148.859 12.123 148.936 14.1778 149.913 16.1435C150.811 17.9475 152.323 18.9927 154.296 19.3729C155.485 19.6026 156.674 19.5638 157.824 19.1512C159.429 18.5752 160.359 17.3974 160.791 15.7924C160.797 15.7698 160.788 15.7439 160.781 15.6711L160.783 15.6663Z" fill="#5FB8F9"></path><path d="M20.9554 23.6133C20.9114 23.4806 20.9994 23.3755 21.0401 23.2655C23.7118 16.2292 26.3852 9.19293 29.0602 2.15666C29.1531 1.91398 29.3241 1.79102 29.5767 1.79102H34.723C34.9544 1.79102 35.1113 1.89888 35.1938 2.1146C37.8721 9.16219 40.5504 16.2098 43.2254 23.2574C43.2677 23.3674 43.3476 23.4742 43.3166 23.6101C43.2124 23.678 43.0983 23.6473 42.9924 23.6473C41.2656 23.6489 39.5371 23.6473 37.8102 23.6473C37.4746 23.6473 37.473 23.6473 37.3671 23.3383C37.0738 22.5002 36.7757 21.6621 36.4955 20.8208C36.4271 20.617 36.344 20.528 36.1078 20.5296C33.4735 20.5393 30.8392 20.5377 28.2033 20.5296C27.9801 20.5296 27.8791 20.5975 27.8091 20.8095C27.524 21.6637 27.2144 22.5099 26.9277 23.3625C26.8593 23.5632 26.7762 23.6538 26.54 23.6521C24.7626 23.6408 22.9852 23.6457 21.2079 23.6441C21.1248 23.6441 21.0352 23.6699 20.957 23.6052L20.9554 23.6133ZM32.1376 8.51017C31.8183 9.17675 29.7249 15.3005 29.72 15.5464H34.6123C33.7847 13.1924 32.9685 10.8723 32.1376 8.51017Z" fill="#5FB8F9"></path><path d="M20.6427 18.9C20.1328 19.7899 19.5039 20.594 18.748 21.2978C17.3779 22.5727 15.7553 23.3671 13.9226 23.7165C11.1922 24.2391 8.54323 23.9592 6.04743 22.7134C2.78431 21.0826 0.844031 18.4389 0.207047 14.8714C-0.214894 12.5093 -0.00799654 10.1892 0.97599 7.98402C2.34933 4.90353 4.7311 2.92969 7.95512 1.98321C10.591 1.20986 13.2335 1.25516 15.8123 2.26958C17.8618 3.0753 19.4046 4.48288 20.5384 6.3467C20.6166 6.47452 20.6704 6.5635 20.5026 6.67676C19.2482 7.5213 18.0003 8.37394 16.7589 9.21848C16.6774 9.19421 16.6448 9.14082 16.609 9.09067C15.3741 7.40319 13.6815 6.63145 11.6092 6.6266C10.521 6.62498 9.48649 6.86443 8.53998 7.40805C6.73817 8.44351 5.84705 10.0501 5.66459 12.0692C5.57661 13.0481 5.65155 14.022 5.99204 14.9556C6.76913 17.088 8.32656 18.3014 10.5438 18.7059C11.4822 18.8774 12.427 18.8434 13.3556 18.6137C14.6475 18.2917 15.6706 17.5653 16.4673 16.5136C16.5047 16.4635 16.5389 16.4117 16.5764 16.3632C16.6758 16.2321 16.7996 16.2143 16.9478 16.313C17.0505 16.3809 17.1515 16.4521 17.2541 16.5233C18.2853 17.2336 19.3182 17.9422 20.3478 18.6541C20.4488 18.7237 20.5661 18.7738 20.6427 18.9016V18.9Z" fill="#5FB8F9"></path><path d="M103.226 12.0142C103.226 13.8424 103.223 15.6706 103.231 17.4972C103.231 17.7415 103.177 17.8888 102.943 18.0231C99.7205 19.8578 96.5062 21.7038 93.2936 23.5563C93.0965 23.6712 92.958 23.6728 92.7593 23.5579C89.5483 21.7054 86.3308 19.861 83.11 18.0231C82.8868 17.8952 82.807 17.7561 82.8086 17.5021C82.8168 13.8343 82.8168 10.1665 82.8086 6.49872C82.8086 6.23015 82.8884 6.08292 83.1247 5.94864C85.2376 4.74815 87.3425 3.53472 89.4538 2.32938C89.6656 2.20804 89.8171 2.06405 89.9279 1.83916C90.5779 0.518947 91.9805 -0.1088 93.318 0.0141607C94.6279 0.132268 95.6135 0.763251 96.1853 1.96535C96.2635 2.12876 96.3873 2.2048 96.5258 2.2857C98.6225 3.48942 100.721 4.69314 102.817 5.89686C102.892 5.94055 102.966 5.98908 103.044 6.02306C103.19 6.08616 103.231 6.19132 103.23 6.34502C103.221 6.90158 103.226 7.45652 103.226 8.01308V12.0142ZM99.4028 12.0077C99.4028 10.8849 99.3963 9.76204 99.4077 8.63759C99.4093 8.4127 99.3409 8.28651 99.1405 8.17325C97.9643 7.51153 96.7913 6.83848 95.6249 6.15573C95.4261 6.03924 95.2974 6.04086 95.1036 6.17838C93.8426 7.06499 92.1744 7.05852 90.92 6.16543C90.7538 6.04733 90.6414 6.02791 90.4606 6.13308C89.273 6.82554 88.0804 7.51153 86.8814 8.18782C86.7071 8.28651 86.6436 8.39005 86.6436 8.59067C86.6517 10.8493 86.6517 13.1079 86.6436 15.3665C86.6436 15.5816 86.7169 15.6933 86.8993 15.7968C88.8592 16.9132 90.8157 18.036 92.7674 19.1653C92.9499 19.2705 93.0867 19.2753 93.2724 19.1685C95.2257 18.0392 97.1807 16.9164 99.1421 15.8017C99.3409 15.6884 99.4109 15.5622 99.4077 15.3373C99.3963 14.2258 99.4028 13.116 99.4028 12.0045H99.4012L99.4028 12.0077ZM94.9407 3.43441C94.9439 2.11582 93.9159 1.22112 92.6631 1.45248C91.829 1.60618 91.2214 2.25334 91.1269 3.08818C91.0128 4.09452 91.4283 4.92127 92.2428 5.25941C93.5478 5.79979 94.9602 4.93906 94.9423 3.43441H94.9407Z" fill="#5FB8F9"></path><path d="M167.038 1.42004C167.162 1.35856 167.275 1.38444 167.382 1.38283C168.997 1.38283 170.613 1.38768 172.229 1.37474C172.489 1.37312 172.62 1.46049 172.742 1.68376C174.231 4.37595 175.733 7.06006 177.23 9.7474C177.313 9.89786 177.401 10.0435 177.514 10.236C177.6 10.0936 177.67 9.98685 177.732 9.87683C179.249 7.15875 180.767 4.44067 182.276 1.71773C182.411 1.47505 182.549 1.36988 182.847 1.37312C184.45 1.39253 186.053 1.38283 187.656 1.38283H188.002C187.997 1.54947 187.901 1.65302 187.834 1.76303C185.283 6.0246 182.73 10.2878 180.171 14.5461C180.037 14.7678 179.98 14.9846 179.98 15.2418C179.987 17.7851 179.983 20.3285 179.983 22.8718C179.983 22.9576 179.975 23.045 179.983 23.1307C180.005 23.3297 179.912 23.3766 179.724 23.3766C178.258 23.3702 176.792 23.375 175.324 23.3718C175.052 23.3718 175.049 23.3653 175.049 23.0369C175.049 21.0857 175.049 19.1361 175.049 17.1849C175.049 16.5426 175.041 15.9003 175.052 15.2596C175.057 14.991 174.993 14.7613 174.855 14.5299C172.309 10.2926 169.769 6.0521 167.229 1.81157C167.156 1.69023 167.055 1.57698 167.035 1.42327L167.038 1.42004Z" fill="#5FB8F9"></path><path d="M105.561 12.7074V2.0373C105.565 1.69107 105.565 1.68945 105.903 1.68945C107.233 1.68945 108.564 1.68945 109.893 1.68945C110.297 1.68945 110.499 1.89169 110.499 2.29455V18.8554C110.499 19.1952 110.475 19.1774 110.822 19.1774H118.355C118.716 19.179 118.718 19.179 118.72 19.5382V23.3176C118.72 23.7027 118.76 23.6816 118.363 23.6816H106.019C105.933 23.6816 105.845 23.6768 105.758 23.6816C105.615 23.6913 105.553 23.6315 105.561 23.4891C105.566 23.3904 105.561 23.2917 105.561 23.193V12.7074Z" fill="#5FB8F9"></path></g><defs><clipPath id="clip0_1_21"><rect width="188" height="24" fill="white"></rect></clipPath></defs></svg>