<svg width="80" height="80" viewBox="0 0 80 80" fill="none" xmlns="http://www.w3.org/2000/svg">
<path d="M51.3167 41.0493H49.6833C50.7722 40.3493 51.6667 39.5716 52.3667 38.716C54.3889 36.3049 55.4 33.5438 55.4 30.4327V27.7493C55.4 27.4382 55.3028 27.1855 55.1083 26.991C54.9139 26.7966 54.6611 26.6993 54.35 26.6993H51.55C48.9056 26.6993 46.4944 27.4382 44.3167 28.916C42.2167 27.4382 39.8833 26.6993 37.3167 26.6993H35.5667C35.2556 26.6993 35.0028 26.7966 34.8083 26.991C34.6139 27.1855 34.5167 27.4382 34.5167 27.7493V29.3827C34.5167 30.3938 34.6333 31.366 34.8667 32.2993L24.25 42.7993C23.0833 43.966 22.5 45.4049 22.5 47.116C22.5 48.8271 23.1028 50.2855 24.3083 51.491C25.5139 52.6966 26.9333 53.2993 28.5667 53.2993C30.2 53.2993 31.6 52.7938 32.7667 51.7827C33.9333 52.8716 35.2944 53.416 36.85 53.416H51.3167C53.0278 53.416 54.4861 52.8132 55.6917 51.6077C56.8972 50.4021 57.5 48.9438 57.5 47.2327C57.5 45.5216 56.8972 44.0632 55.6917 42.8577C54.4861 41.6521 53.0278 41.0493 51.3167 41.0493ZM53.3 28.6827V30.4327C53.3 33.0771 52.4833 35.3716 50.85 37.316C49.8389 38.4827 48.6139 39.3966 47.175 40.0577C45.7361 40.7188 44.1611 41.0493 42.45 41.0493L46.8833 36.616C47.0389 36.4605 47.1167 36.2271 47.1167 35.916C47.1167 35.6049 47.0194 35.3521 46.825 35.1577C46.6306 34.9632 46.3972 34.866 46.125 34.866C45.8528 34.866 45.6 34.9827 45.3667 35.216L40.7 39.8827C40.6222 37.2382 41.4389 34.866 43.15 32.766C44.1611 31.4438 45.4056 30.4327 46.8833 29.7327C48.3611 29.0327 49.9167 28.6827 51.55 28.6827H53.3ZM36.6167 28.6827H37.3167C39.2611 28.6827 41.0111 29.2271 42.5667 30.316C42.1778 30.7049 41.8278 31.0938 41.5167 31.4827L41.2833 31.716L40.7 31.1327C40.4667 30.8993 40.2139 30.7827 39.9417 30.7827C39.6694 30.7827 39.4361 30.8799 39.2417 31.0743C39.0472 31.2688 38.95 31.5021 38.95 31.7743C38.95 32.0466 39.0278 32.2993 39.1833 32.5327L40.2333 33.466C39.7667 34.3216 39.4167 35.1771 39.1833 36.0327C38.3278 35.0993 37.6861 34.0688 37.2583 32.941C36.8306 31.8132 36.6167 30.6271 36.6167 29.3827V28.6827ZM35.6833 34.3993C36.3833 35.9549 37.3944 37.316 38.7167 38.4827C38.6389 39.3382 38.6389 40.1938 38.7167 41.0493H36.85C36.0722 41.0493 35.3333 41.2049 34.6333 41.516L31.6 38.4827L35.6833 34.3993ZM25.7667 50.0327C24.9889 49.2549 24.6 48.3021 24.6 47.1743C24.6 46.0466 24.9889 45.0549 25.7667 44.1993L30.0833 39.8827L32.7667 42.566C32.1444 43.1105 31.6389 43.791 31.25 44.6077C30.8611 45.4243 30.6667 46.3188 30.6667 47.291C30.6667 48.2632 30.9389 49.216 31.4833 50.1493C30.7056 50.9271 29.7528 51.316 28.625 51.316C27.4972 51.316 26.5444 50.8882 25.7667 50.0327ZM32.7667 47.2327C32.7667 46.066 33.1556 45.0938 33.9333 44.316C34.7111 43.5382 35.6833 43.1493 36.85 43.1493H43.0333V51.316H36.85C35.6833 51.316 34.7111 50.9077 33.9333 50.091C33.1556 49.2743 32.7667 48.3216 32.7667 47.2327ZM51.3167 51.316H45.0167V43.1493H51.3167C52.4833 43.1493 53.4556 43.5382 54.2333 44.316C55.0111 45.0938 55.4 46.0466 55.4 47.1743C55.4 48.3021 55.0111 49.2743 54.2333 50.091C53.4556 50.9077 52.4833 51.316 51.3167 51.316Z" fill="#5FB8F9"/>
<rect x="1" y="1" width="78" height="78" rx="39" stroke="#5FB8F9" stroke-width="2" stroke-dasharray="6 4"/>
</svg>
