<svg width="109" height="32" viewBox="0 0 109 32" fill="none" xmlns="http://www.w3.org/2000/svg">
<path d="M45.8121 10.45C39.8635 10.45 35.0371 15.2894 35.0371 21.2249C35.0371 27.1605 39.8765 31.9999 45.8121 31.9999C51.7476 31.9999 56.5871 27.1605 56.5871 21.2249C56.5871 15.2894 51.7606 10.45 45.8121 10.45ZM45.8121 26.9005C42.6883 26.9005 40.1451 24.3573 40.1451 21.2336C40.1451 18.1098 42.6883 15.5667 45.8121 15.5667C48.9358 15.5667 51.479 18.1098 51.479 21.2336C51.479 24.3573 48.9358 26.9005 45.8121 26.9005Z" fill="#111111"/>
<path d="M81.6552 6.71974C83.5096 6.71974 85.0173 5.21636 85.0173 3.3577C85.0173 1.49905 83.5096 0 81.6552 0C79.8009 0 78.2932 1.50338 78.2932 3.36204C78.2932 5.22069 79.8009 6.71974 81.6552 6.71974Z" fill="#111111"/>
<path d="M23.8115 10.4587C23.5299 10.4371 23.2613 10.4241 22.984 10.4241C20.3845 10.4241 17.9193 11.4899 16.1516 13.3702C14.384 11.4985 11.9274 10.4241 9.35391 10.4241C4.19821 10.4284 0 14.6136 0 19.7693V31.5624H5.03872V19.9123C5.03872 17.772 6.79773 15.8007 8.86867 15.5884C9.01598 15.5754 9.15895 15.5668 9.29326 15.5668C11.6242 15.5668 13.5261 17.4688 13.5391 19.7996V31.5581H18.6905V19.8906C18.6905 17.7634 20.4365 15.7921 22.5204 15.5798C22.6677 15.5668 22.8107 15.5581 22.945 15.5581C25.2759 15.5581 27.1909 17.4514 27.1996 19.7693V31.5624H32.3509V19.9123C32.3509 17.5511 31.4758 15.2722 29.8987 13.5175C28.326 11.7498 26.1641 10.6624 23.8115 10.4587Z" fill="#111111"/>
<path d="M64.5156 0.502686H59.3643V31.5842H64.5156V0.502686ZM74.3764 0.502686H69.2251V31.5842H74.3764V0.502686ZM84.2329 10.9657H79.0816V31.5755H84.2329V10.9657Z" fill="#111111"/>
<path d="M108.313 20.7441C108.313 18.0103 107.247 15.4367 105.324 13.4741C103.387 11.5158 100.831 10.4283 98.1102 10.4283H97.9759C95.1554 10.463 92.4866 11.5808 90.4936 13.5868C88.5006 15.5927 87.3785 18.2442 87.3482 21.0777C87.3135 23.9675 88.4227 26.7013 90.4719 28.7722C92.5212 30.8432 95.2334 31.987 98.1232 31.987H98.1362C101.923 31.987 105.471 29.9593 107.412 26.7013L107.659 26.2854L103.405 24.1928L103.192 24.5394C102.118 26.2984 100.272 27.3382 98.2228 27.3382C95.6017 27.3382 93.3401 25.5922 92.6425 23.1053H108.313V20.7441ZM97.9066 15.1075C100.259 15.1075 102.365 16.6542 103.106 18.8464H92.7205C93.4484 16.6542 95.554 15.1075 97.9066 15.1075Z" fill="#111111"/>
</svg>
