<svg width="133" height="32" viewBox="0 0 133 32" fill="none" xmlns="http://www.w3.org/2000/svg">
<path fill-rule="evenodd" clip-rule="evenodd" d="M132.872 11.4894C132.872 13.6171 131.17 15.3192 129.042 15.3192C126.915 15.3192 125.213 13.6171 125.213 11.4894C125.213 9.36179 126.915 7.65967 129.042 7.65967C131.17 7.65967 132.872 9.36179 132.872 11.4894Z" fill="#7887E6"/>
<path fill-rule="evenodd" clip-rule="evenodd" d="M132.872 23.4042C132.872 25.5319 131.17 27.234 129.042 27.234C126.915 27.234 125.213 25.5319 125.213 23.4042C125.213 21.2766 126.915 19.5745 129.042 19.5745C131.17 19.5745 132.872 21.2766 132.872 23.4042Z" fill="#FF5073"/>
<path fill-rule="evenodd" clip-rule="evenodd" d="M9.12864 13.1915H6.06473V5.95743H9.12864C11.2563 5.95743 12.4477 7.48938 12.4477 9.61704C12.4477 11.9149 11.0861 13.1915 9.12864 13.1915ZM9.72434 1.53195H0.0222168V26.7234H5.97965V17.532H9.63925C14.4903 17.532 18.1499 14.468 18.1499 9.36168C18.235 4.93616 15.5116 1.53195 9.72434 1.53195ZM49.7242 8.08509L45.7243 19.2341L41.1285 8.08509H35.1711L43.0859 25.8723L40.6179 32H46.1498L55.5966 8.17027H49.7242V8.08509ZM92.9582 7.31921V8.08509H89.8943V12.0851H92.9582V26.7234H98.7454V12.0851H102.745V8.08509H98.7454V7.06385C98.7454 5.44684 99.4262 4.25531 101.213 4.25531C101.809 4.25531 102.405 4.34046 102.916 4.51067V0.340445C101.979 0.0851269 101.043 0 100.107 0C95.4262 0 92.9582 2.89369 92.9582 7.31921ZM82.3199 22.6383C81.6391 23.149 80.8731 23.4042 80.022 23.4042C78.8305 23.5744 77.7241 22.7234 77.5539 21.5319C77.5539 21.4468 77.5539 21.3616 77.5539 21.2765C77.5539 19.7446 78.7455 18.2128 82.3199 18.8085V22.6383ZM81.2135 7.65955C78.3199 7.65955 75.5114 8.42559 72.9583 9.8724L74.5752 13.1915C76.1922 12.4255 77.9795 12 79.7667 11.9149C81.1284 11.9149 82.3199 12.4256 82.3199 13.7873V15.0639C74.2348 14.4681 71.9369 18.0425 71.9369 21.2765C72.022 24.5957 74.8306 27.234 78.1497 27.1489C78.1497 27.1489 78.1497 27.1489 78.2348 27.1489C79.6816 27.0638 81.1284 26.6383 82.3199 25.8723V26.7234H88.1922V13.7873C88.1922 9.53195 85.4688 7.65955 81.2135 7.65955ZM29.1286 22.6383C28.4477 23.149 27.6817 23.4042 26.8307 23.4042C25.6392 23.5744 24.5328 22.7234 24.3626 21.5319C24.3626 21.4468 24.3626 21.3616 24.3626 21.2765C24.3626 19.7446 25.5541 18.2128 29.1286 18.8085V22.6383ZM27.852 7.65955C24.9584 7.65955 22.1498 8.42559 19.5966 9.8724L21.2137 13.1915C22.8307 12.4255 24.6179 12 26.4051 11.9149C27.7668 11.9149 28.9583 12.4256 28.9583 13.7873V15.0639C20.8732 14.4681 18.5754 18.0425 18.5754 21.2765C18.6605 24.5957 21.4689 27.234 24.7881 27.1489C24.7881 27.1489 24.7882 27.1489 24.8733 27.1489C26.3201 27.0638 27.7668 26.6383 28.9583 25.8723V26.7234H34.8307V13.7873C34.8307 9.53195 32.1073 7.65955 27.852 7.65955ZM61.554 13.3617C61.554 12.5107 62.405 11.9149 63.8518 11.9149C65.3837 12 66.8305 12.3405 68.1922 12.9362L69.8093 9.10642C67.8518 8.17025 65.7242 7.65958 63.5966 7.57447C59.2562 7.57447 55.7668 9.53191 55.7668 13.5319C55.7668 19.7447 64.5327 18.6383 64.5327 21.3617C64.5327 22.383 63.5114 22.8936 61.8093 22.8936C60.1922 22.8085 58.4901 22.3829 57.0433 21.617L55.171 25.3617C57.3838 26.4681 59.8519 27.0638 62.32 27.0638C66.5753 27.0638 70.2348 24.851 70.2348 20.851C70.2348 14.8085 61.554 15.8298 61.554 13.3617ZM112.447 11.7447C114.064 11.7447 115.341 13.0213 115.511 15.4894H109.299C109.554 13.0213 110.83 11.7447 112.447 11.7447ZM121.469 18.6383V17.1915C121.469 11.7447 117.639 7.74474 112.447 7.74474C107.256 7.74474 103.256 11.8298 103.256 17.617C103.256 23.4894 107.086 27.234 113.128 27.234C115.852 27.3191 118.49 26.5531 120.703 25.1063L119.086 21.4468C117.554 22.383 115.767 22.8936 113.979 22.8936C113.809 22.8936 113.724 22.8936 113.554 22.8936H113.469C113.299 22.8936 113.213 22.8936 113.128 22.8936H113.043C112.958 22.8936 112.873 22.8936 112.788 22.8085H112.703C112.618 22.8085 112.533 22.7234 112.447 22.7234C112.362 22.7234 112.362 22.7234 112.277 22.6383C112.192 22.6383 112.107 22.5531 112.107 22.5531C112.022 22.5531 111.937 22.468 111.852 22.468H111.767C111.682 22.3829 111.511 22.383 111.426 22.2979C111.171 22.1277 111.001 21.9575 110.745 21.7873C110.66 21.7022 110.575 21.617 110.49 21.5319L110.405 21.4468C110.405 21.3617 110.32 21.3616 110.32 21.2765C110.235 21.1914 110.15 21.1064 110.15 21.0213C109.724 20.2553 109.469 19.4893 109.469 18.6383H121.469Z" fill="#2D2341"/>
</svg>
