<svg width="80" height="80" viewBox="0 0 80 80" fill="none" xmlns="http://www.w3.org/2000/svg">
<path d="M54.9333 28.2163C53.6111 26.8941 52.0361 26.0774 50.2083 25.7663C48.3805 25.4552 46.6499 25.6496 45.0166 26.3496C44.8611 26.4274 44.7444 26.5635 44.6666 26.7579C44.5888 26.9524 44.5888 27.1274 44.6666 27.2829C44.7444 27.4385 44.8805 27.5552 45.0749 27.6329C45.2694 27.7107 45.4444 27.7107 45.5999 27.6329C46.9999 27.0107 48.4583 26.8357 49.9749 27.1079C51.4916 27.3802 52.7944 28.0607 53.8833 29.1496C55.3611 30.6274 56.0999 32.4163 56.0999 34.5163C56.0999 36.6163 55.3611 38.4052 53.8833 39.8829L48.9833 44.8996L38.2499 34.1663L41.0499 31.3663C41.2055 31.2107 41.2833 31.0552 41.2833 30.8996C41.2833 30.7441 41.2249 30.5885 41.1083 30.4329C40.9916 30.2774 40.8361 30.1996 40.6416 30.1996C40.4472 30.1996 40.2722 30.2774 40.1166 30.4329L31.3666 39.1829C29.7333 40.7385 28.8777 42.6441 28.7999 44.8996C27.9444 44.5107 27.0305 44.2579 26.0583 44.1413C25.0861 44.0246 24.1333 44.0829 23.1999 44.3163C22.9666 44.3941 22.8111 44.5496 22.7333 44.7829C22.4222 46.1052 22.4416 47.4274 22.7916 48.7496C23.1416 50.0718 23.7833 51.1996 24.7166 52.1329C25.4166 52.8329 26.2333 53.3774 27.1666 53.7663C28.0999 54.1552 29.0722 54.3496 30.0833 54.3496C30.7833 54.3496 31.4444 54.2718 32.0666 54.1163H32.1833C32.8055 54.2718 33.4277 54.3496 34.0499 54.3496C34.6722 54.3496 35.2555 54.3107 35.7999 54.2329C36.4222 54.3107 37.0444 54.3496 37.6666 54.3496C38.8333 54.3496 39.9611 54.1357 41.0499 53.7079C42.1388 53.2802 43.1111 52.6385 43.9666 51.7829L54.9333 40.8163C56.0222 39.7274 56.7805 38.4052 57.2083 36.8496C57.6361 35.2941 57.6361 33.7579 57.2083 32.2413C56.7805 30.7246 56.0222 29.3829 54.9333 28.2163ZM30.0833 52.9496C29.3055 52.9496 28.5277 52.7941 27.7499 52.4829C26.9722 52.1718 26.2722 51.7441 25.6499 51.1996C24.9499 50.4218 24.4444 49.5468 24.1333 48.5746C23.8222 47.6024 23.7833 46.5718 24.0166 45.4829C25.0277 45.3274 26.0388 45.4052 27.0499 45.7163C28.0611 46.0274 28.8972 46.5135 29.5583 47.1746C30.2194 47.8357 30.7055 48.5941 31.0166 49.4496C31.3277 50.3052 31.4833 51.1607 31.4833 52.0163L28.9166 49.4496C28.7611 49.3718 28.5861 49.3329 28.3916 49.3329C28.1972 49.3329 28.0416 49.3913 27.9249 49.5079C27.8083 49.6246 27.7499 49.7802 27.7499 49.9746C27.7499 50.1691 27.8277 50.3441 27.9833 50.4996L30.4333 52.9496H30.0833ZM33.8166 52.9496L36.3833 50.4996C36.4611 50.3441 36.4999 50.1691 36.4999 49.9746C36.4999 49.7802 36.4416 49.6246 36.3249 49.5079C36.2083 49.3913 36.0527 49.3329 35.8583 49.3329C35.6638 49.3329 35.4888 49.3718 35.3333 49.4496L32.8833 52.0163C32.8055 51.1607 32.9222 50.3052 33.2333 49.4496C33.5444 48.5941 34.0499 47.8357 34.7499 47.1746C35.4499 46.5135 36.2861 46.0274 37.2583 45.7163C38.2305 45.4052 39.2222 45.3274 40.2333 45.4829C40.4666 46.5718 40.4277 47.6024 40.1166 48.5746C39.8055 49.5468 39.3194 50.3829 38.6583 51.0829C37.9972 51.7829 37.2388 52.2885 36.3833 52.5996C35.5277 52.9107 34.6722 53.0274 33.8166 52.9496ZM43.0333 50.7329C41.7888 51.9774 40.3111 52.7163 38.5999 52.9496C38.9111 52.7163 39.2222 52.4441 39.5333 52.1329C40.4666 51.1996 41.1083 50.0718 41.4583 48.7496C41.8083 47.4274 41.8277 46.1052 41.5166 44.7829C41.4388 44.5496 41.2833 44.3941 41.0499 44.3163C39.7277 43.9274 38.4055 43.9274 37.0833 44.3163C35.7611 44.7052 34.6333 45.3663 33.6999 46.2996C32.9999 46.9218 32.4944 47.6607 32.1833 48.5163C31.7944 47.6607 31.2499 46.9218 30.5499 46.2996L30.1999 45.8329C30.1222 44.8218 30.2777 43.8107 30.6666 42.7996C31.0555 41.7885 31.5999 40.8941 32.2999 40.1163L37.3166 35.0996L47.9333 45.8329L43.0333 50.7329ZM42.7999 29.3829C42.9555 29.3829 43.1111 29.3246 43.2666 29.2079C43.4222 29.0913 43.4999 28.9357 43.4999 28.7413C43.4999 28.5468 43.4222 28.3718 43.2666 28.2163C43.1111 28.0607 42.9361 27.9829 42.7416 27.9829C42.5472 27.9829 42.3916 28.0607 42.2749 28.2163C42.1583 28.3718 42.0999 28.5468 42.0999 28.7413C42.0999 28.9357 42.1583 29.0913 42.2749 29.2079C42.3916 29.3246 42.5666 29.3829 42.7999 29.3829Z" fill="#5FB8F9"/>
<rect x="1" y="1" width="78" height="78" rx="39" stroke="#5FB8F9" stroke-width="2" stroke-dasharray="6 4"/>
</svg>
