<svg width="110" height="32" viewBox="0 0 110 32" fill="none" xmlns="http://www.w3.org/2000/svg">
<path d="M64.0015 16.935C63.5208 16.1503 64.1542 15.4921 64.1542 15.4921L69.7227 9.74599C70.3554 9.08773 69.4444 9.08773 69.4444 9.08773H64.255C63.344 9.08773 62.7113 9.74599 62.7113 9.74599L57.5723 15.2137C56.9396 15.872 56.9396 14.9602 56.9396 14.9602V3.01217C56.9396 2.10112 56.0286 2.10112 56.0286 2.10112H52.1046C51.2184 2.10112 51.2184 2.98732 51.2184 2.98732V27.9712C51.2184 28.883 52.1302 28.883 52.1302 28.883H56.0286C56.9141 28.883 56.9141 27.9968 56.9141 27.9968V23.6177C56.9141 22.7066 57.5723 22.0732 57.5723 22.0732L59.42 20.3519L64.0271 28.0984C64.4829 28.883 65.394 28.883 65.394 28.883H70.3306C71.2416 28.883 70.7609 28.0984 70.7609 28.0984L64.0015 16.935ZM47.1183 27.9712V9.97393C47.1183 9.06217 46.2073 9.06217 46.2073 9.06217H42.2584C41.3474 9.06217 41.3474 9.97393 41.3474 9.97393V27.9712C41.3474 28.883 42.2584 28.883 42.2584 28.883H46.2073C47.1183 28.883 47.1183 27.9712 47.1183 27.9712ZM46.9664 5.54366V2.96176C46.9664 2.96176 46.9664 2.07556 46.0802 2.07556H42.2322C42.2322 2.07556 41.3467 2.07556 41.3467 2.96176V5.54366C41.3467 5.54366 41.3467 6.42985 42.2322 6.42985H46.105C46.105 6.42985 46.9664 6.42985 46.9664 5.54366ZM37.1188 27.9712V3.03774C37.1188 2.12669 36.2077 2.12669 36.2077 2.12669H32.1829C31.2719 2.12669 31.2719 3.03774 31.2719 3.03774V27.9712C31.2719 28.883 32.1829 28.883 32.1829 28.883H36.2077C37.1188 28.883 37.1188 27.9712 37.1188 27.9712ZM28.0821 26.9089C28.0821 26.9089 28.5884 26.3267 28.0062 25.8204L24.7916 23.0105C26.2345 20.859 27.0951 18.3026 27.0951 15.5176C27.0951 8.12627 21.0955 2.1274 13.7042 2.1274C6.3121 2.12669 0.313232 8.12556 0.313232 15.5169C0.313232 22.909 6.31281 28.9079 13.7042 28.9079C16.4125 28.9079 18.9184 28.0984 21.0451 26.7059L24.5885 29.7685C24.5885 29.7685 25.1708 30.2748 25.6771 29.6925L28.0821 26.9089ZM21.425 15.4928C21.425 19.7704 17.9569 23.2385 13.6786 23.2385C9.40101 23.2385 5.93291 19.7704 5.93291 15.4928C5.93291 11.2145 9.40101 7.74708 13.6786 7.74708C17.9569 7.77193 21.425 11.2145 21.425 15.4928Z" fill="#444444"/>
<path d="M108.68 27.1866L104.377 23.5673C105.871 21.1878 106.756 18.3779 106.756 15.3657C106.756 6.88507 99.8711 0 91.3911 0C82.9112 0 76.0261 6.88507 76.0261 15.3657C76.0261 23.8456 82.9112 30.7307 91.3911 30.7307C94.6817 30.7307 97.745 29.6926 100.251 27.9209L104.832 31.7689C104.832 31.7689 105.516 32.3511 106.099 31.6673L108.832 28.4272C108.807 28.4272 109.364 27.7441 108.68 27.1866ZM100.833 15.3657C100.833 20.5799 96.606 24.8071 91.3911 24.8071C86.1769 24.8071 81.949 20.5799 81.949 15.3657C81.949 10.1508 86.1769 5.9236 91.3911 5.9236C96.606 5.9236 100.833 10.1508 100.833 15.3657Z" fill="#009848"/>
<path d="M85.3162 15.3657C85.3162 12.0243 88.0248 9.31567 91.3662 9.31567C94.7075 9.31567 97.4162 12.0243 97.4162 15.3657C97.4162 18.707 94.7075 21.4157 91.3662 21.4157C88.0248 21.4157 85.3162 18.707 85.3162 15.3657Z" fill="#444444"/>
</svg>
