<svg width="71" height="70" viewBox="0 0 71 70" fill="none" xmlns="http://www.w3.org/2000/svg">
<mask id="mask0_148_81" style="mask-type:luminance" maskUnits="userSpaceOnUse" x="0" y="0" width="70" height="71">
<path d="M69.9652 40.041C68.8323 47.8248 65.1105 55 59.4001 60.4095C53.6897 65.8188 46.3236 69.1471 38.4899 69.8572C30.6562 70.5673 22.8117 68.618 16.2216 64.3236C9.63152 60.0292 4.68012 53.64 2.16602 46.1868C-0.348076 38.7336 -0.278286 30.6509 2.36413 23.2423C5.00655 15.8336 10.0675 9.53095 16.7308 5.351C23.394 1.17105 31.271 -0.642548 39.0913 0.202732C46.9115 1.04801 54.2191 4.50289 59.8353 10.0102L58.8781 10.9863C53.4813 5.69415 46.4592 2.37423 38.9444 1.56196C31.4296 0.749702 23.8603 2.49246 17.4573 6.50914C11.0544 10.5259 6.19103 16.5823 3.65183 23.7016C1.11263 30.8208 1.04556 38.5879 3.46146 45.75C5.87735 52.9119 10.6354 59.0515 16.968 63.1781C23.3007 67.3047 30.8388 69.178 38.3664 68.4956C45.8941 67.8131 52.9725 64.6151 58.4599 59.4169C63.9472 54.2188 67.5237 47.3238 68.6123 39.8441L69.9652 40.041Z" fill="white"/>
</mask>
<g mask="url(#mask0_148_81)">
<path d="M69.9652 40.041C68.8323 47.8248 65.1105 55 59.4001 60.4095C53.6897 65.8188 46.3236 69.1471 38.4899 69.8572C30.6562 70.5673 22.8117 68.618 16.2216 64.3236C9.63152 60.0292 4.68012 53.64 2.16602 46.1868C-0.348076 38.7336 -0.278286 30.6509 2.36413 23.2423C5.00655 15.8336 10.0675 9.53095 16.7308 5.351C23.394 1.17105 31.271 -0.642548 39.0913 0.202732C46.9115 1.04801 54.2191 4.50289 59.8353 10.0102L58.8781 10.9863C53.4813 5.69415 46.4592 2.37423 38.9444 1.56196C31.4296 0.749702 23.8603 2.49246 17.4573 6.50914C11.0544 10.5259 6.19103 16.5823 3.65183 23.7016C1.11263 30.8208 1.04556 38.5879 3.46146 45.75C5.87735 52.9119 10.6354 59.0515 16.968 63.1781C23.3007 67.3047 30.8388 69.178 38.3664 68.4956C45.8941 67.8131 52.9725 64.6151 58.4599 59.4169C63.9472 54.2188 67.5237 47.3238 68.6123 39.8441L69.9652 40.041Z" fill="#5FB8F9" stroke="#5FB8F9" stroke-width="4"/>
</g>
<path d="M59.4584 6.64929L59.6218 10.6927L55.3301 10.9783" stroke="#5FB8F9"/>
<path d="M46.9561 48.2476C45.8503 48.2842 44.7456 48.1449 43.6835 47.8348C43.4398 47.771 43.1832 47.7762 42.9423 47.8496C40.7464 48.6192 38.3672 48.6963 36.126 48.0707C33.8848 47.4451 31.8895 46.1468 30.4097 44.3511C29.8401 43.6778 29.5747 43.7157 29.125 44.4777C28.2778 45.9982 27.2473 47.409 26.0565 48.6786C25.0017 49.7555 24.7278 49.7093 24.0789 48.3763C22.1819 44.4768 21.8247 40.4075 22.8112 36.2166C23.0474 35.1982 23.471 34.2215 23.8359 33.1481C24.8023 33.656 25.7862 33.2543 26.7868 33.0964C29.7678 32.6333 32.1541 33.6503 33.9012 36.1046C34.1949 36.5122 34.4223 36.5966 34.9187 36.4724C37.1862 35.8993 39.4042 35.9356 41.4264 37.3005C42.6325 38.1134 43.1439 39.0509 43.756 40.3429C43.8666 40.5976 44.0153 40.8339 44.1969 41.0439C44.2377 40.8271 44.8386 35.4062 45.4261 32.7422C45.7988 30.9614 45.6284 29.1097 44.9368 27.4268C44.5771 26.5025 43.7613 26.1117 42.7899 26.2027C41.5553 26.3183 40.3104 26.1554 39.1471 25.726C38.5761 25.5209 38.5813 25.3653 38.8272 24.7824C38.9708 24.4622 39.0093 24.1047 38.9371 23.7613C38.779 23.3035 38.7639 22.8083 38.8937 22.3417C39.0236 21.875 39.2922 21.4588 39.6641 21.1484C40.1456 20.6884 40.7066 20.3195 41.3197 20.0596C41.9956 19.8061 42.5104 20.424 43.0447 20.7412C44.6505 21.6864 46.1379 22.7924 47.1205 24.4264C47.3953 24.887 47.5996 25.3861 47.7265 25.9073C48.9982 31.3017 50.1688 36.7242 51.5282 42.0971C52.3043 45.1733 49.8203 48.0567 46.9561 48.2476Z" fill="#5FB8F9"/>
<path d="M23.6404 49.7184C22.7427 49.9172 21.8924 50.1203 21.0342 50.2753C20.9456 50.2645 20.8604 50.2349 20.7841 50.1885C20.7079 50.1422 20.6424 50.0801 20.592 50.0064C19.28 48.2108 18.4475 46.1103 18.1733 43.9034C17.8537 41.3687 17.9768 38.7977 18.537 36.3051C18.9122 34.4833 19.4579 32.7009 20.1671 30.9814C21.0684 31.5517 21.9387 32.104 22.8465 32.6761C20.6515 38.452 20.6645 44.1366 23.6404 49.7184Z" fill="#5FB8F9"/>
</svg>
