<svg width="129" height="32" viewBox="0 0 129 32" fill="none" xmlns="http://www.w3.org/2000/svg">
<path fill-rule="evenodd" clip-rule="evenodd" d="M6.21937 1.97851e-07H27.5253C28.2276 -0.000190846 28.923 0.137973 29.572 0.4066C30.2209 0.675227 30.8105 1.06906 31.3072 1.56559C31.8039 2.06213 32.1979 2.65165 32.4667 3.30048C32.7355 3.94931 32.8739 4.64474 32.8739 5.34705V26.6513C32.8739 29.6054 30.4792 32 27.5253 32H6.21937C3.26606 31.9991 0.872314 29.6048 0.872314 26.6513V5.34705C0.872314 2.39389 3.26621 1.97851e-07 6.21937 1.97851e-07ZM25.3718 26.1825C26.3039 26.1825 27.0595 25.4269 27.0595 24.4948L27.0549 7.50662C27.0549 6.57455 26.2992 5.81905 25.3672 5.81905H8.38053C8.15878 5.81905 7.9392 5.86276 7.73434 5.94766C7.52948 6.03257 7.34337 6.15701 7.18663 6.31389C7.02989 6.47076 6.9056 6.65698 6.82088 6.86191C6.73615 7.06684 6.69263 7.28646 6.69282 7.50822V24.4948C6.69282 25.4269 7.44846 26.1825 8.38053 26.1825H25.3718Z" fill="#444444"/>
<path d="M13.478 20.3386C13.2224 20.3366 12.978 20.2337 12.7979 20.0522C12.6179 19.8708 12.5168 19.6255 12.5169 19.3699V12.5882C12.5162 12.4606 12.5408 12.3342 12.5893 12.2161C12.6377 12.098 12.7089 11.9907 12.7989 11.9002C12.889 11.8098 12.996 11.738 13.1138 11.689C13.2316 11.6401 13.358 11.6149 13.4856 11.6149H20.2767C20.4042 11.6151 20.5305 11.6405 20.6482 11.6895C20.7659 11.7386 20.8728 11.8104 20.9628 11.9008C21.0528 11.9912 21.124 12.0984 21.1725 12.2164C21.221 12.3343 21.2458 12.4607 21.2454 12.5882V19.3683C21.2459 19.4959 21.2212 19.6223 21.1727 19.7403C21.1242 19.8583 21.053 19.9656 20.963 20.056C20.873 20.1464 20.7661 20.2182 20.6483 20.2673C20.5306 20.3163 20.4043 20.3417 20.2767 20.3418L13.478 20.3386ZM49.1576 14.574C48.167 14.3039 47.2293 14.0492 46.5011 13.7248C45.1535 13.1223 44.5263 12.287 44.5263 11.0979C44.5263 8.84962 46.6998 7.8374 48.8642 7.8374C50.9212 7.8374 52.7176 8.68831 53.924 10.2316L54.0062 10.337L55.7451 8.97704L55.6613 8.87144C54.0575 6.8313 51.6821 5.71362 48.9697 5.71362C47.1641 5.71362 45.509 6.2009 44.3121 7.08744C42.9644 8.07333 42.2533 9.50344 42.2533 11.2096C42.2533 15.1765 45.9887 16.1436 48.9915 16.9215C52.0299 17.7226 53.8914 18.3312 53.8914 20.6476C53.8914 22.9283 52.0469 24.4018 49.1932 24.4018C47.782 24.4018 45.1691 24.0277 43.5265 21.5187L43.4504 21.4006L41.6214 22.725L41.6929 22.8322C43.2454 25.1827 45.9252 26.5319 49.0536 26.5319C53.3029 26.5319 56.1596 24.1331 56.1596 20.5654C56.1596 16.4821 52.2751 15.4247 49.1576 14.574Z" fill="#444444"/>
<path fill-rule="evenodd" clip-rule="evenodd" d="M70.021 13.7495V11.6023H72.0656V31.997H70.021V24.029C68.8534 25.6297 67.1021 26.5054 65.0434 26.5054C61.1558 26.5054 58.4387 23.3925 58.4387 18.8978C58.4387 14.4031 61.1619 11.2654 65.0434 11.2654C67.0882 11.2654 68.8395 12.1457 70.021 13.7495ZM60.5938 18.8729C60.5938 23.0338 62.9769 24.5166 65.2079 24.5166L65.2125 24.518C68.133 24.518 70.021 22.2824 70.021 18.8729C70.021 15.4635 68.1299 13.2588 65.2079 13.2588C61.8063 13.2588 60.5938 16.1591 60.5938 18.8729Z" fill="#444444"/>
<path d="M85.584 11.6023V19.6523C85.584 22.4704 83.6541 24.5166 80.996 24.5166C78.7883 24.5166 77.714 23.2062 77.714 20.5125V11.6023H75.6692V20.9301C75.6692 24.4234 77.568 26.5085 80.7476 26.5085C82.7287 26.5085 84.4304 25.6686 85.5854 24.1331V26.1763H87.6302V11.6023H85.584Z" fill="#444444"/>
<path fill-rule="evenodd" clip-rule="evenodd" d="M91.4799 13.133C92.9874 11.9486 95.0337 11.27 97.0908 11.27C100.34 11.27 102.279 12.8863 102.273 15.597V26.1794H100.227V24.5631C99.1946 25.8563 97.701 26.5116 95.779 26.5116C92.6473 26.5116 90.7004 24.799 90.7004 22.0449C90.7004 18.463 94.0757 17.901 95.5135 17.6619C95.7479 17.6232 95.99 17.5859 96.2321 17.5486L96.2411 17.5473C98.2055 17.2449 100.233 16.9329 100.233 15.2664C100.233 13.3798 97.7848 13.2341 97.035 13.2341C95.7106 13.2341 93.8398 13.6268 92.5682 14.7291L92.4519 14.83L91.3836 13.2092L91.4799 13.133ZM92.8353 21.9299C92.8353 24.2651 95.0337 24.518 95.9793 24.518C98.035 24.518 100.236 23.422 100.232 20.3417V18.2332C99.2344 18.8632 97.8149 19.1093 96.5487 19.3288L96.5273 19.3326L95.8923 19.4459C93.8647 19.8216 92.8353 20.3059 92.8353 21.9299Z" fill="#444444"/>
<path d="M114.12 11.8772C113.634 11.531 112.869 11.3245 112.071 11.3245C111.262 11.3351 110.466 11.5335 109.747 11.904C109.028 12.2744 108.405 12.8069 107.927 13.4593V11.5962H105.882V26.1688H107.927V18.3749C107.927 14.9189 109.869 13.371 111.793 13.371C112.356 13.3635 112.913 13.4817 113.424 13.7172L113.563 13.7902L114.21 11.9364L114.12 11.8772Z" fill="#444444"/>
<path fill-rule="evenodd" clip-rule="evenodd" d="M114.719 18.9288C114.719 14.4201 117.531 11.27 121.55 11.27C125.422 11.27 128.128 14.0662 128.121 18.0764C128.12 18.425 128.1 18.7732 128.063 19.1198L128.051 19.2393H116.872C116.924 22.4485 118.855 24.518 121.819 24.518C123.517 24.518 124.989 23.8273 125.963 22.5711L126.051 22.4563L127.532 23.7759L127.45 23.8753C126.466 25.0754 124.671 26.507 121.705 26.507C117.529 26.507 114.719 23.4623 114.719 18.9288ZM121.494 13.2325C118.996 13.2325 117.225 14.8766 116.948 17.4369H125.96C125.783 15.3781 124.525 13.2325 121.494 13.2325Z" fill="#444444"/>
</svg>
