<svg width="80" height="80" viewBox="0 0 80 80" fill="none" xmlns="http://www.w3.org/2000/svg">
<path d="M32.8834 57.5C30.8612 57.5 29.539 57.1889 28.9168 56.5667C26.9723 54.4667 25.4557 51.9389 24.3668 48.9833C23.5112 46.65 22.9668 44.1222 22.7334 41.4C22.5001 39.3 22.4612 37.2389 22.6168 35.2167C22.7723 33.6611 22.9279 32.6889 23.0834 32.3C23.1612 32.1444 23.2779 31.5611 23.4334 30.55C23.5112 29.5389 23.6279 28.7611 23.7834 28.2167C23.939 27.4389 24.1723 26.8167 24.4834 26.35C24.8723 25.7278 25.8251 25.0667 27.3418 24.3667C28.8584 23.6667 30.3945 23.1222 31.9501 22.7333C33.6612 22.4222 34.9445 22.4417 35.8001 22.7917C36.6557 23.1417 37.3557 23.8417 37.9001 24.8917C38.4445 25.9417 38.8334 27.05 39.0668 28.2167C39.3779 30.0833 39.1057 31.3667 38.2501 32.0667C37.6279 32.6111 36.2668 32.8444 34.1668 32.7667C32.689 32.7667 30.939 32.6111 28.9168 32.3C28.6057 32.3 28.3723 32.1639 28.2168 31.8917C28.0612 31.6194 28.0029 31.3278 28.0418 31.0167C28.0807 30.7056 28.2168 30.4722 28.4501 30.3167C28.6834 30.1611 28.9557 30.0833 29.2668 30.0833C30.9001 30.3167 32.4751 30.4722 33.9918 30.55C35.5084 30.6278 36.4223 30.55 36.7334 30.3167C36.889 30.1611 36.9473 29.8111 36.9084 29.2667C36.8695 28.7222 36.7529 28.1 36.5584 27.4C36.364 26.7 36.1112 26.1167 35.8001 25.65C35.489 25.1833 35.1779 24.9111 34.8668 24.8333C34.4001 24.6 33.5251 24.6389 32.2418 24.95C30.9584 25.2611 29.714 25.6889 28.5084 26.2333C27.3029 26.7778 26.564 27.2444 26.2918 27.6333C26.0195 28.0222 25.8057 29.0722 25.6501 30.7833C25.4945 32.0278 25.339 32.8444 25.1834 33.2333C25.0279 33.6222 24.9112 34.5167 24.8334 35.9167C24.6779 37.7833 24.7168 39.65 24.9501 41.5167C25.1834 43.9278 25.689 46.1833 26.4668 48.2833C27.4779 50.85 28.839 53.0667 30.5501 54.9333C30.939 55.1667 31.7945 55.2833 33.1168 55.2833C34.5945 55.2056 36.2279 55.0111 38.0168 54.7C40.1168 54.2333 42.1001 53.5722 43.9668 52.7167C44.2779 52.5611 44.5695 52.5417 44.8418 52.6583C45.114 52.775 45.3279 52.9889 45.4834 53.3C45.639 53.6111 45.6584 53.9028 45.5418 54.175C45.4251 54.4472 45.2112 54.6611 44.9001 54.8167C43.0334 55.6722 40.9723 56.3333 38.7168 56.8C36.6168 57.2667 34.6723 57.5 32.8834 57.5ZM34.7501 43.2667C34.3612 43.2667 34.0501 43.1111 33.8168 42.8C33.3501 42.1 32.8834 41.2444 32.4168 40.2333C31.4057 38.2889 30.7057 36.4222 30.3168 34.6333C30.239 34.3222 30.2973 34.0306 30.4918 33.7583C30.6862 33.4861 30.9195 33.3111 31.1918 33.2333C31.464 33.1556 31.7362 33.2139 32.0084 33.4083C32.2807 33.6028 32.4557 33.8556 32.5334 34.1667C32.8445 35.7222 33.4668 37.3944 34.4001 39.1833C34.8668 40.1167 35.2945 40.8944 35.6834 41.5167C35.839 41.75 35.8973 42.0222 35.8584 42.3333C35.8195 42.6444 35.6834 42.8778 35.4501 43.0333C35.2168 43.1889 34.9834 43.2667 34.7501 43.2667ZM32.5334 47.35C32.4557 47.35 32.3779 47.35 32.3001 47.35C31.989 47.2722 31.7557 47.0972 31.6001 46.825C31.4445 46.5528 31.4057 46.2611 31.4834 45.95C31.7945 44.55 32.5334 43.1111 33.7001 41.6333C35.0223 40 36.5779 38.7556 38.3668 37.9C41.089 36.5778 43.7334 36.4222 46.3001 37.4333C46.6112 37.5889 46.8251 37.8028 46.9418 38.075C47.0584 38.3472 47.0584 38.6389 46.9418 38.95C46.8251 39.2611 46.6112 39.475 46.3001 39.5917C45.989 39.7083 45.7168 39.6889 45.4834 39.5333C43.4612 38.7556 41.4001 38.8722 39.3001 39.8833C37.9001 40.5833 36.6751 41.575 35.6251 42.8583C34.5751 44.1417 33.8945 45.3667 33.5834 46.5333C33.5057 46.7667 33.3695 46.9611 33.1751 47.1167C32.9807 47.2722 32.7668 47.35 32.5334 47.35ZM43.6168 36.2667C43.4612 36.2667 43.2668 36.2083 43.0334 36.0917C42.8001 35.975 42.6251 35.7611 42.5084 35.45C42.3918 35.1389 42.4112 34.8667 42.5668 34.6333C43.2668 33.2333 44.3557 32.1056 45.8334 31.25C47.6223 30.2389 49.6445 29.8111 51.9001 29.9667C52.2112 29.9667 52.4834 30.0833 52.7168 30.3167C52.9501 30.55 53.0473 30.8222 53.0084 31.1333C52.9695 31.4444 52.8334 31.6972 52.6001 31.8917C52.3668 32.0861 52.0945 32.1833 51.7834 32.1833C50.0723 32.0278 48.5557 32.3389 47.2334 33.1167C45.989 33.7389 45.0945 34.5556 44.5501 35.5667C44.3945 36.0333 44.0834 36.2667 43.6168 36.2667ZM33.9334 32.7667C33.6223 32.7667 33.389 32.6889 33.2334 32.5333C31.9112 31.6 31.3279 30.6278 31.4834 29.6167C31.5612 29.0722 31.8334 28.5667 32.3001 28.1C32.6112 27.8667 32.9029 27.7111 33.1751 27.6333C33.4473 27.5556 33.7195 27.575 33.9918 27.6917C34.264 27.8083 34.4584 28.0028 34.5751 28.275C34.6918 28.5472 34.6918 28.8389 34.5751 29.15C34.4584 29.4611 34.2445 29.6556 33.9334 29.7333L33.7001 29.85C33.7779 30.1611 34.0501 30.4722 34.5168 30.7833C34.8279 30.9389 35.0029 31.1722 35.0418 31.4833C35.0807 31.7944 35.0029 32.0861 34.8084 32.3583C34.614 32.6306 34.3223 32.7667 33.9334 32.7667ZM52.9501 57.5H47.4668C47.1557 57.5 46.9029 57.3833 46.7084 57.15C46.514 56.9167 46.4168 56.6444 46.4168 56.3333V48.8667H44.0834C43.539 48.8667 43.1695 48.6528 42.9751 48.225C42.7807 47.7972 42.839 47.3889 43.1501 47L49.4501 39.65C49.6057 39.4167 49.8584 39.3 50.2084 39.3C50.5584 39.3 50.8501 39.4167 51.0834 39.65L57.3834 47C57.6945 47.3889 57.7334 47.7972 57.5001 48.225C57.2668 48.6528 56.9168 48.8667 56.4501 48.8667H54.1168V53.1833C54.1168 53.4944 54.0001 53.7667 53.7668 54C53.5334 54.2333 53.2612 54.35 52.9501 54.35C52.639 54.35 52.3862 54.2333 52.1918 54C51.9973 53.7667 51.9001 53.4944 51.9001 53.1833V47.8167C51.9001 47.5056 51.9973 47.2333 52.1918 47C52.3862 46.7667 52.639 46.65 52.9501 46.65H54.1168L50.2668 42.1L46.4168 46.65H47.4668C47.7779 46.65 48.0501 46.7667 48.2834 47C48.5168 47.2333 48.6334 47.5056 48.6334 47.8167V55.2833H52.9501C53.2612 55.2833 53.5334 55.3806 53.7668 55.575C54.0001 55.7694 54.1168 56.0222 54.1168 56.3333C54.1168 56.6444 54.0001 56.9167 53.7668 57.15C53.5334 57.3833 53.2612 57.5 52.9501 57.5Z" fill="#5FB8F9"/>
<rect x="1" y="1" width="78" height="78" rx="39" stroke="#5FB8F9" stroke-width="2" stroke-dasharray="6 4"/>
</svg>
