<svg width="70" height="70" viewBox="0 0 70 70" fill="none" xmlns="http://www.w3.org/2000/svg">
<mask id="mask0_148_67" style="mask-type:luminance" maskUnits="userSpaceOnUse" x="0" y="0" width="70" height="71">
<path d="M69.6351 40.041C68.5022 47.8248 64.7804 55 59.07 60.4095C53.3596 65.8188 45.9935 69.1471 38.1598 69.8572C30.3261 70.5673 22.4816 68.618 15.8915 64.3236C9.30144 60.0292 4.35004 53.64 1.83594 46.1868C-0.678154 38.7336 -0.608364 30.6509 2.03405 23.2423C4.67647 15.8336 9.73746 9.53095 16.4007 5.351C23.0639 1.17105 30.9409 -0.642548 38.7612 0.202732C46.5814 1.04801 53.889 4.50289 59.5052 10.0102L58.548 10.9863C53.1512 5.69415 46.1291 2.37423 38.6143 1.56196C31.0995 0.749702 23.5302 2.49246 17.1272 6.50914C10.7243 10.5259 5.86095 16.5823 3.32175 23.7016C0.782549 30.8208 0.715485 38.5879 3.13138 45.75C5.54727 52.9119 10.3053 59.0515 16.6379 63.1781C22.9706 67.3047 30.5087 69.178 38.0363 68.4956C45.564 67.8131 52.6424 64.6151 58.1298 59.4169C63.6171 54.2188 67.1936 47.3238 68.2822 39.8441L69.6351 40.041Z" fill="white"/>
</mask>
<g mask="url(#mask0_148_67)">
<path d="M69.6351 40.041C68.5022 47.8248 64.7804 55 59.07 60.4095C53.3596 65.8188 45.9935 69.1471 38.1598 69.8572C30.3261 70.5673 22.4816 68.618 15.8915 64.3236C9.30144 60.0292 4.35004 53.64 1.83594 46.1868C-0.678154 38.7336 -0.608364 30.6509 2.03405 23.2423C4.67647 15.8336 9.73746 9.53095 16.4007 5.351C23.0639 1.17105 30.9409 -0.642548 38.7612 0.202732C46.5814 1.04801 53.889 4.50289 59.5052 10.0102L58.548 10.9863C53.1512 5.69415 46.1291 2.37423 38.6143 1.56196C31.0995 0.749702 23.5302 2.49246 17.1272 6.50914C10.7243 10.5259 5.86095 16.5823 3.32175 23.7016C0.782549 30.8208 0.715485 38.5879 3.13138 45.75C5.54727 52.9119 10.3053 59.0515 16.6379 63.1781C22.9706 67.3047 30.5087 69.178 38.0363 68.4956C45.564 67.8131 52.6424 64.6151 58.1298 59.4169C63.6171 54.2188 67.1936 47.3238 68.2822 39.8441L69.6351 40.041Z" fill="#5FB8F9" stroke="#5FB8F9" stroke-width="4"/>
</g>
<path d="M59.1283 6.64929L59.2917 10.6927L55 10.9783" stroke="#5FB8F9"/>
<path d="M34.875 18.0001C32.3927 18.0001 30.0317 18.5345 27.9075 19.4986C27.6167 19.6306 27.4939 19.9779 27.6372 20.2633L28.6425 22.2771C28.7774 22.5475 29.102 22.663 29.3774 22.5385C31.0565 21.7888 32.915 21.3762 34.875 21.3762C42.3375 21.3762 48.3739 27.4126 48.3739 34.8751C48.3739 37.6823 47.5098 40.2765 46.0448 42.4369L44.2716 40.6627C44.1504 40.5413 43.9806 40.4819 43.8102 40.501C43.5259 40.534 43.3117 40.7752 43.3125 41.0613V47.2489C43.3114 47.5595 43.5622 47.8124 43.8728 47.8136H50.0592C50.5646 47.8178 50.8182 47.2046 50.458 46.8501L48.464 44.856C50.5212 42.0594 51.75 38.6104 51.75 34.875C51.75 25.5619 44.1881 18.0001 34.875 18.0001ZM19.6853 21.9365C19.1851 21.9367 18.9339 22.5408 19.2865 22.8956L21.2816 24.8907C19.2241 27.6876 18 31.1391 18 34.8751C18 44.1882 25.5619 51.7501 34.875 51.7501C37.3573 51.7501 39.7183 51.2112 41.8425 50.2471C42.1329 50.1147 42.2551 49.7676 42.1117 49.4825L41.1031 47.4687C40.9683 47.2006 40.6468 47.0856 40.3726 47.2072C38.6935 47.957 36.835 48.374 34.875 48.374C27.4125 48.3739 21.3761 42.3376 21.3761 34.8751C21.3761 32.0688 22.2351 29.4715 23.6986 27.311L25.4784 29.0863C25.8332 29.439 26.4373 29.1878 26.4375 28.6876V22.5012C26.4386 22.1888 26.1852 21.9353 25.8728 21.9365H19.6853ZM35.9714 25.3114C35.7879 25.32 35.6202 25.4188 35.5221 25.574L28.7754 36.2615C28.5389 36.635 28.8058 37.1228 29.2478 37.1251H33.7039L33.1886 43.8311C33.1473 44.4117 33.9068 44.6651 34.2224 44.1761L40.9746 33.4875C41.2124 33.1119 40.9413 32.6218 40.4967 32.6239H36.0417L36.5603 25.9179C36.5872 25.5795 36.3105 25.294 35.9714 25.3114Z" fill="#5FB8F9"/>
</svg>
