<svg width="136" height="32" viewBox="0 0 136 32" fill="none" xmlns="http://www.w3.org/2000/svg">
<path d="M118.692 10.7725C119.442 10.7725 120.059 10.3826 120.143 9.87895L120.883 1.50683C120.883 0.679331 119.914 0 118.695 0C117.477 0 116.509 0.679327 116.509 1.50698L117.248 9.87895C117.33 10.3825 117.947 10.7725 118.695 10.7725H118.692ZM114.167 13.3875C114.544 12.7389 114.515 12.01 114.119 11.6862L107.237 6.85901C106.522 6.44466 105.449 6.9434 104.84 7.99929C104.229 9.05383 104.338 10.2316 105.051 10.6461L112.671 14.1939C113.147 14.3705 113.797 14.0306 114.17 13.3825L114.167 13.3875ZM123.221 13.383C123.597 14.0311 124.243 14.3711 124.72 14.1944L132.339 10.6466C133.057 10.2322 133.159 9.05428 132.554 7.99974C131.942 6.9449 130.868 6.44511 130.154 6.85946L123.272 11.6866C122.879 12.01 122.85 12.7395 123.224 13.3879L123.221 13.383ZM118.692 21.2305C119.442 21.2305 120.059 21.6171 120.143 22.1212L120.883 30.4921C120.883 31.3222 119.914 32 118.695 32C117.477 32 116.509 31.3222 116.509 30.4921L117.248 22.1212C117.33 21.6171 117.947 21.2305 118.695 21.2305H118.692ZM123.221 18.6149C123.597 17.965 124.243 17.628 124.72 17.8067L132.339 21.3521C133.057 21.7669 133.159 22.9459 132.554 24.0013C131.942 25.0527 130.868 25.5538 130.154 25.1401L123.272 20.3174C122.879 19.9915 122.85 19.2615 123.224 18.6136H123.221M114.167 18.614C114.544 19.2615 114.515 19.9915 114.119 20.318L107.237 25.1405C106.522 25.5543 105.449 25.0532 104.84 24.0018C104.229 22.9463 104.338 21.7673 105.051 21.3526L112.671 17.8071C113.147 17.6285 113.797 17.9655 114.17 18.6155H114.167" fill="#FDBB30"/>
<path d="M75.286 20.3022C75.286 20.5591 75.2632 20.8241 75.1928 21.0568C74.9009 22.0234 73.9002 22.8407 72.6482 22.8407C71.6042 22.8407 70.7751 22.2477 70.7751 20.9953C70.7751 19.0784 72.8849 18.5491 75.2866 18.5624L75.286 20.3021V20.3022ZM79.0531 16.9617C79.0531 13.8009 77.7025 11.0197 73.139 11.0197C70.7964 11.0197 68.9372 11.6777 67.9224 12.2641L68.6657 14.8052C69.5931 14.2196 71.0713 13.7349 72.4701 13.7349C74.7849 13.7285 75.164 15.0458 75.164 15.8888V16.0884C70.1182 16.0809 66.9285 17.8281 66.9285 21.3872C66.9285 23.562 68.5531 25.599 71.377 25.599C73.1123 25.599 74.5656 24.9064 75.4354 23.7958H75.5213C75.5213 23.7958 76.0968 26.2069 79.274 25.2844C79.1082 24.2817 79.0537 23.2113 79.0537 21.9242L79.0532 16.9617M0.434082 6.7152C0.434082 6.7152 3.7314 20.2262 4.25792 22.4189C4.87213 24.9784 5.9791 25.9206 9.16916 25.2844L11.2279 16.9081C11.75 14.8265 12.0993 13.3424 12.4357 11.227H12.4943C12.7304 13.3648 13.0654 14.8329 13.495 16.915C13.495 16.915 14.3327 20.7179 14.7624 22.7147C15.1926 24.7108 16.3899 25.9697 19.515 25.2844L24.4209 6.7146H20.4611L18.7855 14.7436C18.335 17.0797 17.9266 18.9073 17.6115 21.044H17.5555C17.2691 18.9261 16.9045 17.1731 16.447 14.8964L14.7039 6.7146H10.5774L8.7118 14.6901C8.18378 17.1144 7.68862 19.0711 7.37494 21.1367H7.31789C6.99585 19.1917 6.56716 16.7314 6.10322 14.3859C6.10322 14.3859 4.99565 8.68104 4.6061 6.7146L0.434082 6.7152ZM31.9111 20.3022C31.9111 20.5591 31.8883 20.8241 31.8169 21.0568C31.5256 22.0234 30.5243 22.8407 29.2722 22.8407C28.2282 22.8407 27.4002 22.2477 27.4002 20.9953C27.4002 19.0784 29.5094 18.5491 31.9116 18.5624L31.9111 20.3021V20.3022ZM35.6778 16.9617C35.6778 13.8009 34.3272 11.0197 29.7646 11.0197C27.4214 11.0197 25.5607 11.6777 24.5465 12.2641L25.2889 14.8052C26.2162 14.2196 27.6943 13.7349 29.0936 13.7349C31.41 13.7285 31.7891 15.0458 31.7891 15.8888V16.0884C26.7412 16.0809 23.5531 17.8281 23.5531 21.3872C23.5531 23.562 25.1767 25.599 27.9986 25.599C29.7362 25.599 31.1886 24.9064 32.0595 23.7958H32.1443C32.1443 23.7958 32.7215 26.2069 35.8979 25.2844C35.7318 24.2817 35.6778 23.2113 35.6778 21.9242V16.9617ZM41.9641 21.3426V6.7152H38.1925V25.285H41.9641V21.3426ZM91.303 6.7152V20.4138C91.303 22.3033 91.6592 23.6257 92.4188 24.435C93.0843 25.1425 94.1779 25.6005 95.4893 25.6005C96.6048 25.6005 97.7015 25.3876 98.219 25.1957L98.1703 22.2492C97.7853 22.3433 97.3431 22.4195 96.7379 22.4195C95.4527 22.4195 95.023 21.5962 95.023 19.9007V14.6594H98.3073V11.1059H95.023V6.7152H91.303ZM81.568 11.3347V25.285H85.4586V18.1422C85.4586 17.7561 85.4819 17.4197 85.543 17.112C85.8308 15.615 86.975 14.6594 88.6185 14.6594C89.069 14.6594 89.3915 14.7084 89.7409 14.758V11.1059C89.4477 11.0475 89.2487 11.0202 88.8839 11.0202C87.4321 11.0202 85.7802 11.957 85.087 13.9666H84.9818V11.3347H81.568ZM44.6049 11.3347V25.285H48.3955V17.1045C48.3955 16.7207 48.4406 16.3147 48.5735 15.9628C48.8876 15.1391 49.6542 14.1745 50.8774 14.1745C52.4077 14.1745 53.1222 15.4676 53.1222 17.3338V25.284H56.9098V17.0039C56.9098 16.6376 56.9598 16.1961 57.0681 15.8731C57.3791 14.9357 58.2048 14.1735 59.3421 14.1735C60.8927 14.1735 61.637 15.4439 61.637 17.6405V25.2835H65.4271V17.0667C65.4271 12.734 63.2269 11.0188 60.7429 11.0188C59.6438 11.0188 58.7754 11.2941 57.99 11.7754C57.3306 12.1816 56.7391 12.7573 56.223 13.514H56.167C55.568 12.0106 54.1587 11.0196 52.3222 11.0196C49.9629 11.0196 48.9026 12.2156 48.2594 13.2298H48.2029V11.3343H44.6049" fill="#1A75CF"/>
<path d="M134.251 24.6068H134.308C134.384 24.6068 134.432 24.5754 134.432 24.5288C134.432 24.4758 134.387 24.447 134.316 24.447C134.292 24.447 134.267 24.4519 134.251 24.4519V24.6081V24.6066L134.251 24.6068ZM134.242 24.9829H134.04V24.3264C134.086 24.3175 134.193 24.3015 134.329 24.3015C134.477 24.3015 134.544 24.3224 134.593 24.3552C134.634 24.3839 134.664 24.4329 134.664 24.4991C134.664 24.5665 134.602 24.6235 134.51 24.6485V24.6568C134.585 24.6767 134.625 24.7308 134.647 24.8256C134.667 24.9203 134.68 24.959 134.692 24.9833H134.464C134.444 24.959 134.432 24.9009 134.419 24.8429C134.406 24.7765 134.375 24.7432 134.307 24.7432H134.241L134.242 24.9829ZM134.325 24.1125C134.036 24.1125 133.818 24.3482 133.818 24.6488C133.818 24.9415 134.036 25.1804 134.333 25.1804C134.631 25.1853 134.85 24.9417 134.85 24.644C134.85 24.3476 134.631 24.1125 134.33 24.1125H134.325ZM134.338 23.9343C134.741 23.9343 135.063 24.2519 135.063 24.6438C135.063 25.0404 134.741 25.3584 134.333 25.3584C133.924 25.3584 133.598 25.04 133.598 24.644C133.598 24.2519 133.924 23.9345 134.333 23.9345H134.337" fill="#FDBB30"/>
</svg>
