<svg width="100" height="100" viewBox="0 0 100 100" fill="none" xmlns="http://www.w3.org/2000/svg">
<path d="M50 0C28.878 0 0 15.9646 0 50C0 83.1693 27.7756 100 50 100C88.1299 100 100 66.5945 100 50C100 25.5118 81.2598 0 50 0ZM38.4055 4.70472C33.189 9.15354 28.8583 16.5157 26.063 25.6496C22.4409 23.5039 19.1142 20.8465 16.1614 17.7559C22.2638 11.3583 29.9803 6.87008 38.4055 4.70472ZM14.0157 20.1575C17.3228 23.6024 21.0827 26.5354 25.1772 28.8583C23.6417 34.8228 22.7362 41.437 22.6181 48.3858H3.26772C3.62205 38.0118 7.40157 28.1102 14.0157 20.1575ZM14.0157 79.8425C7.38189 71.8898 3.62205 61.9882 3.26772 51.6142H22.6181C22.7362 58.5827 23.6417 65.1772 25.1772 71.1417C21.1024 73.4842 17.3425 76.3976 14.0157 79.8425ZM16.1614 82.2638C19.1142 79.1732 22.4409 76.5157 26.063 74.3701C28.8583 83.4842 33.189 90.8661 38.4055 95.315C29.9803 93.1299 22.2638 88.6417 16.1614 82.2638ZM48.3858 96.6535C40 95.5905 32.7756 86.2205 28.878 72.7953C34.9016 69.7441 41.5551 68.0315 48.3858 67.7756V96.6535ZM48.3858 64.5669C41.2598 64.8031 34.3307 66.5551 28.0512 69.626C26.7323 64.1142 25.9449 58.0315 25.8268 51.6142H48.3858V64.5669ZM48.3858 48.3858H25.8268C25.9449 41.9685 26.7323 35.8858 28.0512 30.374C34.3504 33.4449 41.2795 35.1968 48.3858 35.4331V48.3858ZM48.3858 32.2244C41.5354 31.9882 34.9016 30.2559 28.878 27.2047C32.7756 13.7598 40 4.40945 48.3858 3.34646V32.2244ZM85.9842 20.1575C92.5984 28.1102 96.378 38.0118 96.7323 48.3858H77.4016C77.2835 41.4173 76.378 34.8228 74.8425 28.8583C78.9173 26.5157 82.6772 23.6024 85.9842 20.1575ZM83.8386 17.7362C80.8858 20.8268 77.5591 23.4843 73.937 25.6299C71.1417 16.5157 66.811 9.15354 61.5945 4.68504C70.0197 6.87008 77.7362 11.3583 83.8386 17.7362ZM51.6142 3.34646C60 4.40945 67.2244 13.7795 71.122 27.2047C65.0984 30.2559 58.4646 31.9685 51.6142 32.2244V3.34646ZM51.6142 35.4331C58.7402 35.1968 65.6693 33.4449 71.9488 30.374C73.2677 35.8858 74.0551 41.9685 74.1732 48.3858H51.6142V35.4331ZM51.6142 51.6142H74.1732C74.0551 58.0315 73.2677 64.1142 71.9488 69.626C65.6098 66.5066 58.6759 64.7815 51.6142 64.5669V51.6142ZM51.6142 96.6535V67.7756C58.4646 68.0118 65.0984 69.7441 71.122 72.7953C67.2244 86.2402 60 95.5905 51.6142 96.6535ZM61.5945 95.2953C66.811 90.8465 71.1417 83.4843 73.937 74.3504C77.5591 76.4961 80.8858 79.1535 83.8386 82.2441C77.7362 88.6417 70.0197 93.1299 61.5945 95.2953ZM85.9842 79.8425C82.6772 76.3976 78.9173 73.4842 74.8425 71.1417C76.378 65.1772 77.2835 58.563 77.4016 51.6142H96.7323C96.378 61.9882 92.5984 71.8898 85.9842 79.8425Z" fill="#5FB8F9"/>
</svg>
